<svg version="1.0" xmlns="http://www.w3.org/2000/svg" width="682.667" height="682.667" viewBox="0 0 512 512"><path d="M50.1 51.2C17.7 83.6 5 97 5 98.6c0 2.5 1.9 4.4 31.5 32.9 10.9 10.4 21.6 20.8 23.8 23 6.7 6.5 9.7 8.4 11.9 7.6 2.1-.7 89.4-87.4 90.9-90.2.7-1.3-5.7-8.2-31.3-33.8C108.8 15.2 99 6 97.4 6c-1.6 0-14.8 12.6-47.3 45.2z"/><path d="M163 41.9c-2.2 2.2-4 4.4-4 4.9 0 .6 9.5 10.5 21 22.2 11.6 11.7 21 21.9 21 22.9 0 1.1-1.8 2.3-5.2 3.5-31.2 11-61.4 35.2-81.3 65.1-8.3 12.5-10.1 15.7-16 29.3-2.3 5.3-4.8 9.8-5.6 9.9-1.5.3-3.5-1.4-25-21.8C51.6 162.3 47.8 159 46.8 159c-1.4 0-8.8 7.4-8.8 8.8 0 .7 1.4 3.9 3.1 7 1.7 3.1 4.4 7.9 5.9 10.7 1.5 2.7 4.9 9 7.5 14 2.6 4.9 7.6 14.2 11 20.5 3.4 6.3 8.4 15.5 11 20.5 2.6 4.9 5.1 9.4 5.5 10 1.8 2.5 3.3 9.5 3.6 16.9.1 4.5.5 8.8.7 9.6.3.8.8 3.9 1.2 6.7.7 6.8 5.4 25.4 6.7 27 .6.7.8 1.3.5 1.3-1 0 5.2 14.2 11 25 12.4 23.4 35.1 47.6 58.7 62.7 6.5 4.2 25.7 14.3 27.1 14.3.4 0 2.1.6 3.8 1.4 3.6 1.6 15.1 5.4 18.8 6.2 12.6 2.7 23.1 4.4 30.5 4.9 11 .8 13.2 1.4 24.1 7.4 4.9 2.6 15.1 8 22.8 12.1 7.7 4 14.5 7.6 15 8 .6.4 6 3.3 12 6.5 6.1 3.2 13.8 7.3 17.3 9.1 3.4 1.9 7.1 3.4 8.1 3.4 2 0 10.1-8.2 10.1-10.2 0-.6-9.5-10.7-21.1-22.4-23.4-23.5-23.2-23.3-14.7-26.9 2.4-1 5.9-2.5 7.8-3.3 1.9-.9 3.8-1.6 4.1-1.7.3 0 5.3-2.8 11.1-6.2 29.8-17.5 51.9-40.8 67.3-70.7 2.9-5.7 5.2-10.6 5-10.8-.7-.6 4.1-9.2 5.3-9.6.7-.2 10.5 8.8 21.8 19.9 11.2 11.2 21.3 20.8 22.4 21.3 1.5.7 2.8.1 5.9-2.5 6.7-5.8 6.6-6-6.5-30.5-6.4-12.1-13.5-25.5-15.9-29.9-2.3-4.4-7.2-13.4-10.8-20.1-7.6-14.2-7.4-13.7-8.2-23.9-2.4-31.9-13.5-62.7-31.9-88.5-2.1-3-5-6.7-6.4-8.2-3-3.3-3.2-7.3-.4-9.9 3.8-3.5 6.1-2.5 15.6 7.1 5.9 6 9.5 9 11 9 3.1 0 17.3-14.2 19.8-19.7 2.6-5.9 2.5-13.9-.2-19.4-3-5.9-34.5-37.2-39.7-39.4-5.2-2.2-13.2-2.1-18.3.3-5.6 2.5-20 16.7-20 19.7 0 1.5 3 5.2 9 11.2 5.3 5.3 9 9.9 9 11 0 1.1-1.1 3.2-2.4 4.6-3 3.2-5.6 2.7-11.6-2.3-11.5-9.5-32.8-21.2-48-26.3-4.1-1.4-12.7-3.6-19-5-11.4-2.5-16.4-3.2-30.9-4.2-7.7-.6-7.1-.3-27.1-11.3-2.5-1.3-8.8-4.7-14-7.5-5.2-2.7-10.8-5.8-12.5-6.7-4.1-2.4-12-6.7-25-13.5-6-3.2-11.4-6.1-12-6.5-3.4-2.5-5.5-2.1-9.5 1.9zm113.3 86.6c37.1 5.7 71.7 28.9 91.2 61 7 11.5 13.6 28.4 15.9 40.5 1.8 9 2.1 13.5 2.1 26.5 0 16.5-.8 22.7-4.1 34.3-6.4 22-16.9 39.9-33.3 56.2-21.7 21.7-44.8 33-76.9 37.6-4.7.7-29.9.7-31 0-.5-.3-3.1-.8-5.8-1.2-7.5-1-21-5-30.4-9.1-38-16.5-65.3-49.3-74.5-89.7-4.1-18-3.9-40 .6-58.5 12.6-51.4 53.8-89.5 105.6-97.7 2.1-.3 3.9-.7 4.1-.8 1-1.1 28.5-.4 36.5.9z"/><path d="M244.9 152.4c-.2.2-2.4.7-4.9 1-13.4 1.8-31.8 9.3-44.7 18.3-21.5 15.1-36.9 39.6-41.7 66.5-2.3 12.5-1.5 31.7 1.8 44.2 10.3 39.8 40.7 68.3 82.1 77.2 5.2 1.1 27.8 1.3 34 .3 29.7-4.8 55.4-20.7 70.9-43.9 24.4-36.4 24.8-81.7 1-117.6-14.3-21.7-40.2-39.5-63.9-44-2.2-.4-4.7-.9-5.5-1.1-1.9-.6-28.6-1.3-29.1-.9zm-34.2 46.7l26.3 26.3 19.9 19.9 4.8-1.7c2.6-1 6.2-2.4 7.8-3.1 11.1-4.8 34.5-13.5 36.7-13.7 1.5-.1 3.8.4 5.3 1.2 2.7 1.4 6.3 7.4 5.9 9.7-.1.7-.2 2.2-.3 3.4-.1 2.7-4.9 6.8-10.3 8.9-2.4.9-14.5 5.6-27 10.5-18.9 7.2-23.3 8.6-26.2 8.1-2.9-.6-8.6-5.7-32.9-29.9-16.2-16.1-30-30.2-30.6-31.4-2.1-4.2-1.3-8.3 2.4-12 3.1-3.1 3.9-3.4 7.6-3 3.4.4 5.2 1.5 10.6 6.8zM439.5 351c-1.1.5-21.5 20.3-45.2 44.2-29.3 29.3-43.4 44.1-43.7 45.8-.2 1.4.1 3.3.6 4.3s14.2 15 30.4 31.2c26.7 26.7 29.8 29.5 32.7 29.5 3 0 7.2-3.9 47.8-44.4 31.1-31.2 44.5-45.2 44.7-47 .3-2-4.6-7.4-30.3-33-16.9-16.8-31-30.6-31.5-30.6s-1.4-.2-2.2-.4c-.7-.3-2.2-.1-3.3.4z"/></svg>