<svg version="1.0" xmlns="http://www.w3.org/2000/svg" width="480" height="480" viewBox="0 0 360 360"><path d="M114.6 22.6C90.5 34.8 74.5 46.2 59 62 44.1 77.2 34 89.6 34.5 92.1c.5 2.3 7.7 12.8 12.3 17.7 1.8 2 1.5 2.7-2 5.7-4.8 4-5 4.8-3.2 11.7.9 3.5 1.8 7 2 7.8 1.4 6.2 7.7 29.1 9.5 35.1 1.3 4.1 2.3 7.6 2.4 7.9.1.3.9 3.2 2 6.5 1 3.3 1.9 6.4 2 7 .5 1.9 5.8 17 7.1 20.2.8 1.7 1.4 3.4 1.4 3.7 0 1.2 5.7 12.6 10.4 20.6 5.2 9 13.1 19.8 17.8 24.2 1.5 1.4 2.8 3.1 2.8 3.7 0 .6.5 1.1 1.2 1.1.6 0 2.8 1.8 4.9 3.9 2 2.2 4 3.7 4.3 3.4.3-.4.6.1.6 1.1 0 .9.4 1.5.9 1.2 1.1-.7 3.3 1.9 2.4 2.8-.4.4 0 .4 1 0 1.2-.4 2 .1 2.6 1.7.5 1.3 1 1.8 1 1 .1-1 .7-.7 2 .7 1 1.2 2.2 1.8 2.6 1.4.5-.4.5.1.2 1.1-.4 1.1-.3 1.6.4 1.2.5-.4 1.6-.1 2.4.5.8.7 1.5 1 1.5.6 0-.3.9.2 1.9 1.1 1.1.9 1.8 2 1.5 2.4-.2.4.5.5 1.6.2s2-.1 2 .4 1.2 1.5 2.6 2.1c1.4.7 2.2 1.7 1.9 2.2-.3.6.1.7.9.4.9-.3 1.6-.1 1.6.6 0 .6.5.8 1 .5.6-.3 1-.1 1 .4 0 .6.5 1.1 1.1 1.1.6 0 3 1.3 5.3 2.8 2.2 1.5 5 3.2 6.1 3.6l2 .8-2 .9c-1.8.8-1.8.9.3.5 3.2-.6 5.2.3 5.2 2.3 0 1.4.2 1.4 1 .1.6-1 1-1.1 1-.3 0 .7.7 1.3 1.5 1.3s1.5.4 1.5.8 1.6 1.4 3.5 2.1c1.9.7 3.5 1.7 3.5 2.2 0 .5.9.9 1.9.9 1.1 0 2.7 1 3.6 2.2.8 1.3 1.8 2.2 2.1 2 .7-.5 6.4 2.2 6.4 3 0 .5 1 .8 2.1.8 1.6 0 2 .5 1.7 1.8-.3 1.1 0 1.9.8 1.9.7 0 1.1-.4.8-.9-.7-1.1-.2-1 4 .7 2.3 1 3.6 1.1 3.6.5 0-.6.5-.8 1-.5.6.3 1 0 1-.7 0-.8 1.3-2.1 2.8-3l2.9-1.7 5.1 6.7c2.8 3.7 6.4 8.1 7.9 9.9l2.9 3.2 5.3-2.4c6.3-3 6.5-3 5.7-.8-.9 2.3.4.9 1.8-1.9.7-1.3 1.6-2.3 2.1-2.4 1.2-.1 6.8-2.6 7.5-3.4.3-.3 2.5-1.6 5-2.9 2.5-1.3 5.3-3 6.2-3.8 1.5-1.3 1.6-1.3 1.2.9-.3 1.9-.2 1.8.7-.5.6-1.5 1.7-2.7 2.5-2.7s1.4-.3 1.4-.8c0-.4.9-1.3 2.1-2 1.7-1.1 2-1.1 1.4 0-.5.7.2.3 1.3-.9 1.2-1.2 3.5-3 5.2-3.9 1.6-1 3-2.2 3-2.7 0-.4.5-.5 1-.2.6.3 1-.1 1-1.1 0-1.1.6-1.5 2-1.1 1.2.3 1.8.1 1.4-.5-.7-1.1 3.1-5 4-4.1.3.4.6-.2.6-1.1 0-1.2.5-1.6 1.5-1.2.8.3 1.4.2 1.4-.2-.3-2.1.3-3.2 1.7-3.2.9 0 1.2-.5.8-1.2-.4-.6-.3-.8.3-.5.6.4 1.4-.3 1.7-1.6.6-2.1.7-2.1 2-.4 1.2 1.6 1.4 1.6 2 .2.3-.9.2-1.3-.4-1-2.3 1.4-.7-1.6 3-5.6 2.2-2.4 4-4.8 4-5.2 0-.5.4-.6.9-.3.4.3 1.3-.6 2-2 .9-2.2 1.6-2.5 3.9-2 2.7.6 2.7.6.4-.7l-2.3-1.3 2.5-1.4c1.4-.7 2.3-1.6 2.1-2-.2-.3.7-1.8 2.1-3.3 1.3-1.4 2.4-3.5 2.4-4.6 0-1-2.7-5.6-6-10-6.1-8.3-7-9.8-4.7-8.5.7.4.9.3.4-.2s-1.3-1-1.8-1c-.5-.1-1.2-.2-1.6-.3-.3 0 .2-1 1.2-2.1 1.5-1.6 2.1-1.8 3.3-.7 1.3 1 1.4.9.8-.1-.5-.8-.1-2.1 1-3.3 2.2-2.5 2.6-4.9 1.1-6.8-.7-.9-.7-1.2-.1-.8.6.3 1.1 0 1.1-.8s-.3-1.2-.7-1c-1.1.7-4.1-11.2-3.3-13.1.4-1.1.2-1.5-.4-1.1-.6.4-1.4 0-1.7-.9-.5-1.2-.2-1.5 1.1-1 1.6.5 1.6.5.2-.6-.9-.7-1.9-3.1-2.3-5.3-.4-2.2-1.3-4.6-1.9-5.4-.9-1.2-.9-1.3 0-.7.9.5 1.1.2.7-.8-.3-.9-1.1-1.6-1.6-1.6-.6 0-.4-.8.3-1.7 1.2-1.4 1.2-1.6 0-.8-1.1.6-1.3.4-.8-.8.3-.9.2-1.9-.3-2.2-.5-.3-.7-1.4-.5-2.5.3-1.3 0-1.8-.7-1.4-.7.5-.9.1-.5-.9.3-1 .3-1.7-.2-1.7-1.3 0-2-4.9-.7-5.4.6-.2.3-.5-.6-.5-1.7-.1-2.3-2.4-2.1-7.8.1-.7-.4-1-1-.6s-.8-.2-.5-1.5c.4-1.2.2-2-.3-1.6-.5.3-.9-.1-1-.8 0-.7-.3-2.5-.5-4.1-.3-1.5-.1-2.7.3-2.6 1.9.3 4.6-.2 4-.7-.3-.4-.2-1.4.3-2.4.6-1.1.4-2.4-.5-3.8-1.2-1.6-1.2-2.1-.2-2.5.9-.4.9-.6-.1-.6-.7-.1-1-.6-.7-1.1.3-.6.1-1-.5-1-.7 0-1-.6-.7-1.4.3-.8.2-1.6-.2-1.8-.4-.2-1.4-1.7-2.2-3.3-1.2-2.5-2-3-5-2.9-3.3.1-3.5-.1-7.6-8.5-5.1-10.6-9.5-18.4-10.8-19.3-.6-.4-.2-1.3.9-2.1 1.6-1.2 2.2-1.2 3.3-.1 1.4 1.4 1.7 3 .6 3.7-.5.2-.2.2.6 0 .7-.2 1.9.1 2.5.6 1.2 1 6.6 1 6-.1-.2-.4 0-.9.5-1.3 1.5-.9.3-3.2-5.3-11-9.3-13-13-15.4-15.7-10.3-.8 1.6-.5 2.7 1.4 5.7 2.2 3.4 2.4 4 1.1 5.3-1.3 1.3-2.6.3-10.9-8-5.2-5.2-9.2-9.8-8.9-10.3.3-.5-.2-.6-1-.3-1.1.4-1.6 0-1.6-1.1 0-.9-.4-1.3-1-1-.5.3-1-.1-1-1 0-1.2.5-1.5 1.8-1 1.4.5 1.5.4.5-.6-.7-.7-1.3-2.1-1.3-3.1 0-1.1-2.9-3.7-7.6-6.9-6.7-4.5-7.9-5-10-4-1.3.6-2.4 1.5-2.4 2.1 0 1-5.2-1.6-10-5-3.9-2.8-26-16-26.7-16-.4 0-1.4-.6-2.2-1.4-.9-.7-4.1-2.6-7.1-4.2s-5.7-3.1-6-3.4c-.5-.5-5.7-3.4-11.6-6.5-4.1-2.1-5.4-1.9-9.3 1.4-1.9 1.7-3.8 2.8-4.3 2.5-.4-.3-2.9-3.3-5.5-6.7-2.5-3.4-5.4-7-6.2-7.9-.9-.9-2.2-2.4-2.9-3.3-.7-.8-1.6-1.5-2-1.5-.4.1-6.5 3-13.6 6.6zm14.2 7.3c.9 1.4 1.9 2.8 2.3 3.1.4.3 3.7 4.5 7.5 9.5 3.7 4.9 7.2 9.1 7.6 9.3.4.2.8 1 .8 1.7s.3 1.5.8 1.7c1.1.5 7.2 9 7.2 10.2 0 .5-.3.7-.6.4-.3-.4-2-.2-3.7.3-1.8.6-4.3 1.2-5.7 1.5-4.3.9-19.2 7.6-26 11.7C101.4 90 87.2 105 76.7 123.8l-3.4 6.3-2.2-2.8c-1.1-1.5-2.4-3.3-2.9-3.8-.4-.6-2.8-3.7-5.2-7-2.5-3.3-4.7-6.2-5-6.5-.3-.3-2.7-3.4-5.3-7-2.6-3.6-5.2-7.1-5.8-7.8-1.1-1.4 1.2-5.7 2.5-4.5.4.4.4-.1 0-1.1-.6-1.7-.8-1.6-2.1.8-.7 1.4-1.8 2.6-2.3 2.6-1.6 0-1.2-.8 2.4-4.5 1.9-1.9 3.2-3.5 3-3.5-.7 0 2.2-3.2 13.5-14.9 5.8-6 9.4-9 10.2-8.6.7.5 1 .4.6-.2-.6-1 1.2-3.2 5.2-6.5 1.1-1 2.1-1.5 2.1-1.1 0 .3 1-.5 2.3-1.9 1.2-1.4 3-2.4 3.9-2.3 1 .2 1.7 0 1.7-.3-.3-2 .3-3.2 1.4-3.2.8 0 3.3-1.4 5.7-3.1 2.3-1.7 5.5-3.5 7.1-4.1 1.6-.5 2.9-1.4 2.9-1.9s.7-.9 1.6-.9c.8 0 1.2.4.9 1-.4.6.1.7 1.1.3 1.1-.4 1.5-.3 1 .5-.3.6-.2 1.3.3 1.6.5.4.8-.2.7-1.1-.2-.9-.8-1.9-1.5-2.1-.9-.3-.9-.7 0-1.8 1-1.2 1.4-1.2 2-.2.7 1 .9 1 .9.1 0-1.4 8-5.9 8-4.6 0 .5.5.1 1-.8 1.4-2.3 4-1.9 5.8 1zm30 13.1c.3.8 0 1-.8.5-.9-.5-1.1-.4-.6.4.5.7 1.3.8 2.3.2 1.6-.9 7.3 1.6 7.3 3.2 0 .5.5.5 1 .2.6-.3 1-.1 1 .4 0 .6.6 1.1 1.3 1.1.7 0 2.3.9 3.5 2 1.2 1.1 2.5 1.9 2.9 1.8.9-.3 8.3 4.1 8.3 4.8 0 .3-.4.3-.9-.1-.5-.3-1.2-.1-1.5.4-.4.5.6.7 2.3.5 2.9-.5 6.6 1.9 5.6 3.6-.3.5.5.7 1.9.4 1.3-.2 2.9.2 3.6 1.1.9 1 .9 1.5.1 1.5-.6 0-1.1-.6-1.2-1.3 0-.9-.2-.9-.6.1-.2.6-.9.9-1.5.6-.6-.4-6.9-.8-14-.9l-13-.2-3.5-4.4C156 51 150.9 43 151.5 42c.4-.6 1.1-.8 1.6-.4.5.3.7.9.4 1.4-.3.5-.1 1.1.4 1.5.6.3.8-.5.5-2-.4-2.2-.2-2.4 1.8-1.6 1.2.4 2.4 1.4 2.6 2.1zM169 73.4c0-1.2 2.9-1.2 4.9.1.9.5 1.2.4.8-.1-.3-.6 1.4-.9 4-.9 2.7.1 4.8.7 5.4 1.6.7 1.1.9 1 .9-.5 0-1.7.1-1.8 2.6-.1 1.5.9 2.3 1.2 2 .6-.4-.6-.2-1.1.3-1.1 1 0 1.5 1.3 1.2 3.2-.1.9 2.5.4 4.1-.9.8-.7 1.9-.8 2.8-.3.8.5 1.8.6 2.2.4.4-.3.8-.1.8.4s1.4.8 3 .7c1.7-.1 3.7.4 4.5 1.1.7.8 2.3 1.4 3.4 1.4 1.3 0 2.1.7 2.1 1.7 0 1.5.2 1.5.9.4.7-1.2 1.3-1.2 2.4-.3.7.7 1.8.8 2.2.4.5-.4.5-.1.1.5-.5.9-.1 1.3 1.1 1.3 2.5 0 11.6 5.8 10.9 6.9-.4.5.3.7 1.4.4 1.2-.3 2 0 2 .6 0 .7-.5.9-1.2.5-.7-.5-.8-.3-.3.5.5.9 1.1.9 1.7.3 1.2-1.2 3.8.8 3.8 3 0 1 .3.9 1-.2.9-1.3 1-1.3 1.1 0 .1.8.1 1.8 0 2.2 0 .4.7.4 1.6.1 1.3-.5 1.5-.2 1 1.1-.4 1.1-.3 1.5.4 1 .9-.5 8.5 6.7 14.4 13.7 4.7 5.7 13.9 21.6 15.1 26.1.1.5.2.9.4 1 .1.2.3 1 .5 1.8.3.8 1.3 4.6 2.4 8.3 5.6 19.1 4.7 44.1-2.1 64.2-6.5 19-20.4 37.9-36.8 50.2-6.1 4.6-22.2 13.3-24.5 13.3-.8 0-1.5.4-1.5.8s-.8.8-1.7.9c-1 .1-4.3.8-7.3 1.7-9.1 2.7-12.8 3.1-28 3-14.9 0-21.7-1.1-33.8-5.5-6.8-2.4-17.5-7.8-18.4-9.3-.4-.6-.8-.7-.8-.1 0 .7-.3.7-.8 0-.4-.6-2.7-2.4-5.2-4-6.4-4.3-18.9-17-23.7-24.1-4.6-6.7-11.5-19.4-10.6-19.4.3 0 0-.6-.6-1.3-.6-.8-.8-1.7-.4-2 .3-.4.1-.7-.6-.7s-1-.4-.6-.9c.3-.5.1-1.2-.4-1.6-.5-.3-.8-1.4-.6-2.5.2-1.2 0-1.8-.6-1.5-.7.5-1.4-3.2-1-5.8 0-.4-.4-.7-1.1-.7-.6 0-.9-.3-.5-.6.3-.3.1-1.8-.5-3.3-1.5-3.9-1.8-6.2-.7-5.6.5.4.9.2.9-.4 0-.5-.5-1.1-1.1-1.3-.6-.2-1.1-5-1.3-12.6-.2-9 .1-12.2.9-11.8.6.2 1.2-.2 1.2-1 0-.7-.5-1.1-1-.7-1.4.8 1-14.6 3.1-19.7.3-.8.7-2 .8-2.5.8-4 1.8-5.6 3.3-5.1 1.4.5 1.4.4-.1-.6-1.5-1.1-1.5-1.4.2-3.7 1-1.5 1.8-2.8 1.8-3.1.2-2 1.6-3.9 2.5-3.3.6.3.7.1.3-.5-.6-1.1 1.8-7.1 3.4-8.2.4-.3 1.3-1.5 1.9-2.8.7-1.3 1.9-3.1 2.6-4 .8-.9 2.7-3.4 4.3-5.4 1.6-2.1 3.2-3.5 3.5-3.2.3.3.8-.4 1.2-1.5.3-1.2 1-2.1 1.5-2.1s2.9-2.1 5.4-4.6c2.8-2.7 5.2-4.4 6.1-4.1.8.4 1.2.1 1-.6-.4-1.2 8.4-7.2 13.5-9.2 1.4-.6 4-1.8 5.8-2.8 1.7-1 3.3-1.5 3.3-1.2.1.3.2.9.3 1.4 0 .5.5 1.3 1 1.8.6.5.6.2.1-.6-.6-1.1-.4-1.3 1.1-.8 1.8.7 1.8.6.2-.7-2.3-1.7-2.3-2.1.2-2.4 1.1-.1 2.9-.3 3.9-.4 1.1-.1 1.7-.7 1.4-1.2-.4-.5.1-.7.9-.3.9.3 2 .1 2.6-.5 1.2-1.2 3.5-.1 2.7 1.3-.4.5.3.5 1.8 0 1.4-.6 2.8-.7 3.1-.4.3.4.6.1.6-.6s-.9-.9-2.7-.5c-1.9.5-2.5.3-1.8-.4 1.5-1.5 8.2-2.1 9.6-.8.9.8 1 .8.4-.3s-.4-1.3.8-.8c1 .4 1.7.1 1.7-.6 0-.8.4-.6 1 .3.5.8 1 1 1 .4zm25.4 1.7c-.3.5-1 .7-1.5.3-.5-.3-.7-1-.3-1.5.3-.5 1-.7 1.5-.3.5.3.7 1 .3 1.5zm-130.6 57c2.8 3.7 5.2 7.5 5.2 8.4 0 .9-.7 4-1.5 6.8-1.9 6.7-3.8 17.8-3.9 22.9 0 2.1-1.2 1.4-1.9-1.2-.3-1.2-.1-1.8.5-1.4.6.4.2-.5-.7-2-1.3-1.9-1.4-2.6-.4-2.6.9 0 .7-.4-.4-1.3-1-.7-1.8-2.9-1.9-5.4-.2-2.2-.6-3.9-1-3.6-.7.4-1.3-3.7-.9-6 0-.4-.4-.7-.9-.7s-1-.5-1-1.1c0-.5.6-.7 1.3-.3.6.4.4-.2-.6-1.3-1.1-1.2-1.5-2.7-1.1-3.8.6-1.3.4-1.6-.5-1-1 .5-1.1.2-.6-1.4.3-1.2.2-2.1-.3-2.1-.6 0-.9-.8-.8-1.8.2-.9-.4-2.8-1.3-4.2-1.5-2.3-1.5-2.4.4-1.7 1.8.6 1.9.6.3-.6-1.4-1.1-1.5-1.6-.5-2.7.9-1 .9-1.1 0-.6-1.9 1.1-1.5-.5.5-2s3.1-.5 12 10.7zM290.5 190c-.3.6-.1 1 .4 1 .6 0 1 .3 1 .7-.1.5 0 1 .1 1.3.2.6.7 2.5 1.4 5.8.3 1.2.8 2.7 1.1 3.2.3.5.8 1.8 1 2.7.2 1 1.9 8 3.8 15.5 3.2 12.9 3.3 13.8 1.7 15.3-.9.8-1.9 1.5-2.3 1.5-1.4 0-12.3-15.6-11.9-17 .3-.8.1-1.2-.3-.8-1.4 1.3-3.3-2.4-2.5-4.7 1.9-4.7 2.3-6.1 2.4-7.7.1-.9.5-2 1-2.5s.6-.2.1.6c-.6 1-.4 1.2.4.7s.9-1.2.3-1.9c-.5-.7-.8-2.1-.5-3.2 1.1-5.3 1.5-8.3 1.5-11.4 0-2.7.2-3.1 1-1.8.5 1 .6 2.2.3 2.7zm-8.1 42.1c-.3.5-.1.9.5.9.8 0 12.9 15.3 23.8 30.1 1 1.4.3 2.8-4.9 9-15 18.1-32.7 33.7-49.3 43.5-9.6 5.6-26.6 14.6-26.9 14.2-.2-.2-5.5-7.2-12-15.6-9.2-12.1-11.6-15.8-11.1-17.5.5-1.6.4-1.8-.3-.8-1.2 1.7-2.8.8-3.5-2-.5-1.7-.2-2 1.4-1.6 1 .3 1.7.1 1.3-.4-.3-.5 0-.9.5-.9.6 0 1.1.4 1.1.9s.8 1.1 1.8 1.3c1.1.3 1.9 0 1.9-.7s-.6-1.1-1.4-.8c-.7.3-1.3.1-1.3-.4s1.1-1 2.5-1.1c1.4-.1 3.9-.9 5.5-1.7 1.7-.9 3-1.3 3-1 0 .4.6.3 1.3-.2.6-.4 1.4-.8 1.7-.9.3 0 1.8-.6 3.3-1.2 1.6-.7 3.3-.9 3.9-.6.6.4.8.3.5-.3-.3-.5.7-1.7 2.4-2.7 1.6-.9 2.9-1.3 2.9-.8 0 .4.6 1.6 1.3 2.7 1.1 1.4 1.6 1.5 2.2.5.6-.9.4-1.1-.5-.5-1 .6-1.2.4-.7-.9.4-1 .3-1.5-.3-1.1-.6.3-1-.1-1-.9 0-.9.4-1.6.8-1.6.5 0 1.9-.9 3.2-2 1.2-1.1 2.6-1.7 3-1.5.4.3 1.1-.2 1.4-1.1.4-.9 1.3-1.4 2.2-1 .8.3 1.3.2 1-.3-.8-1.2 5.2-5.3 6.6-4.5.7.4.8.3.4-.4-.9-1.5 4-6.5 5.4-5.7.6.4.9.1.8-.7-.2-.7.3-1.2 1-1 .8.1 1.1-.2.6-.9-.3-.6.5-2.3 2-3.8 1.4-1.4 3.9-4.3 5.5-6.3 1.5-2.1 3.2-3.4 3.6-3 .5.4.5-.1.2-1.1-.4-.9-.3-1.7.2-1.7s1.4-1.4 2.1-3c.7-1.7 1.7-3.3 2.3-3.7.6-.4.7-.1.2.7-.5.9-.4 1.1.4.6.6-.4.9-1.1.6-1.6-.8-1.3 1.4-5.2 2.5-4.5.4.3.7-.3.5-1.2-.4-2.9.6-3.5 2.6-1.7 1 .9 1.6 2.1 1.3 2.5zm-119.6 61.4c.3-.2 1.3 0 2.3.6 1.4.7 1.9.6 2-.3 0-.8.2-.9.5-.2.3.6 1.6.9 3.1.6 1.8-.3 2.4-.1 1.9.7-.4.6-1.1.9-1.6.6-.4-.3-1.1.2-1.4 1.1-.3.9-.2 1.2.5.9.5-.4 1.8-.1 2.7.7 1.5 1.2 1.6 1.1.4-.4-1.1-1.3-1.1-1.8 0-2.4 1.9-1.2 7.8-1.2 7.1-.1-.4.6-.1.7.8.2.7-.5 2.6-1 4.1-1.2 2.2-.2 2.9.2 3.4 2.3.4 1.4.9 2.3 1.2 2 .2-.3 1.9 1.4 3.6 3.7 1.8 2.3 4.5 5.9 6 7.9l2.7 3.7-2.4 1.6c-2.8 1.8-2.6 1.8-19.5-8.2-4.1-2.4-7.8-4.3-8.3-4.3-.5 0-.9-.4-.9-.9s-.9-1.1-2.1-1.4c-1.2-.3-1.8-1-1.4-1.6.3-.7 0-.8-.9-.5-.9.3-1.6.1-1.6-.5s-.7-1.1-1.5-1.1-1.5-.5-1.5-1c0-.6-.6-1-1.3-1-.7 0-2.2-.7-3.3-1.5-1.7-1.3-1.6-1.4 1.5-.5 1.9.5 3.7.8 3.9.5z"/><path d="M123.6 32.2c.2.4 1.4.5 2.6.3 3.2-.7 3.2-1.3-.1-1.1-1.6 0-2.7.4-2.5.8zm-1 2.1c.3 1 .9 1.5 1.2 1.2.3-.3 0-1.1-.7-1.8-1-.9-1.1-.8-.5.6zm-17.2 5.9c-.4.5-.3 1.2 0 1.5.3.4.6.1.6-.6s.4-1 .9-.6c.5.3 1.2.2 1.5-.3.3-.5-.2-.9-1-.9s-1.7.4-2 .9zm4.1.9c-.4.6-.5 1.2-.2 1.5.2.3.7-.2 1-1.1.7-1.7.1-2-.8-.4zm-8.9 1.8c-1.7.6-1.7.8-.4 1.4 1 .3 1.9 0 2.2-.9.3-.8.4-1.4.3-1.3-.1 0-1.1.4-2.1.8zm3.3 1.8c-1.3 1.6-1.2 1.7.4.4.9-.7 1.7-1.5 1.7-1.7 0-.8-.8-.3-2.1 1.3zm-5.2 1.4c.7.9 1 1.9.6 2.3-.4.4.1.4 1 0 1-.3 1.7-.7 1.5-.8-.2-.1-1.2-.8-2.3-1.6-1.8-1.4-1.9-1.3-.8.1zM89 51.4c0 .2.7.7 1.6 1 .8.3 1.2.2.9-.4-.6-1-2.5-1.4-2.5-.6zM83.5 57c-.3.6.1.7.9.4 1.8-.7 2.1-1.4.7-1.4-.6 0-1.3.4-1.6 1zm-6 1c-.3.6.1.7.9.4 1.8-.7 2.1-1.4.7-1.4-.6 0-1.3.4-1.6 1zM71 68c0 .5.5 1 1 1 .6 0 1-.5 1-1 0-.6-.4-1-1-1-.5 0-1 .4-1 1zm-3.9 3.2c.8 1.5 1.3 1.7 2.5.7.8-.6 1.4-1.4 1.4-1.6 0-.3-.8.1-1.7.8-1.4 1.2-1.6 1.2-1.1-.2.4-.9.1-1.6-.7-1.6-1.1 0-1.1.5-.4 1.9zm-3.6-.3c-.3.6.5 1.5 1.7 2.1 2.1 1 2.1 1 .6-.3-1-.8-1.5-1.7-1.1-2 .3-.4.4-.7 0-.7-.3 0-.8.4-1.2.9zM62 74c.8.5 2 1 2.5 1 .6 0 .3-.5-.5-1s-1.9-1-2.5-1c-.5 0-.3.5.5 1zm-3 3c-.8 1.5-.8 1.8.3 1.4.8-.3 1.4-1.1 1.4-1.9 0-2-.4-1.9-1.7.5zm-.4 5.3c.3 1 .9 1.5 1.2 1.2.3-.3 0-1.1-.7-1.8-1-.9-1.1-.8-.5.6zm-5.3 2.2c0 .7.7 1.1 1.5.7 1-.3 1.3-.1.8.6-.4.7-.2 1.2.3 1.2 1.7 0 1.3-1.8-.7-2.9-1.4-.7-1.9-.6-1.9.4zM50.5 88c-.3.6.1.7.9.4 1.8-.7 2.1-1.4.7-1.4-.6 0-1.3.4-1.6 1zm-.5 4c-.8.5-1 1-.5 1 .6 0 1.7-.5 2.5-1s1.1-1 .5-1c-.5 0-1.7.5-2.5 1zm130.1-16c-1.3 1.1-1.9 2-1.3 2 1 0 4.2-2.7 4.2-3.6 0-.7-.4-.5-2.9 1.6zm-19-.7c.2.1 1.3.9 2.4 1.7 1.9 1.4 1.9 1.4.6-.3-.7-.9-1.8-1.7-2.4-1.7-.6 0-.8.1-.6.3zm5.9.7c0 .6.4.9.9.6.5-.4 1.2-.1 1.4.4.3.6.4.5.3-.2-.3-1.5-2.6-2.3-2.6-.8zm4.6.7c-.6 1.4-.5 1.5.5.6.7-.7 1-1.5.7-1.8-.3-.3-.9.2-1.2 1.2zM160 78c-.8.5-1.2 1.2-.9 1.5.4.3 1.2-.1 1.9-1 1.4-1.7 1.1-1.9-1-.5zm35.5 0c.3.5.8 1 1.1 1 .2 0 .4-.5.4-1 0-.6-.5-1-1.1-1-.5 0-.7.4-.4 1zm3.2.1c.7.7 1.5 1 1.8.7.3-.3-.2-.9-1.2-1.2-1.4-.6-1.5-.5-.6.5zm-53 2.3c-.4 1.1-.1 1.3 1 .9 1.2-.5 1.4-.3.8.7-.5.9-.4 1.1.4.6.9-.6.9-1.1 0-2.2-1.4-1.7-1.6-1.7-2.2 0zm5.8-.4c.3.5.8 1 1.1 1 .2 0 .4-.5.4-1 0-.6-.5-1-1.1-1-.5 0-.7.4-.4 1zm54.5-.6c0 .2.8 1 1.8 1.7 1.5 1.3 1.6 1.2.3-.4s-2.1-2.1-2.1-1.3zm-32.3 2.2c-.1.1-2.9.4-6.2.7-8.3.8-12.2 1.5-18 3.5-2.7.9-5.6 1.7-6.4 1.8-.7.2-1.8.7-2.4 1.3-.6.6-1.7 1.1-2.4 1.1s-4.3 1.8-7.9 4c-3.6 2.2-7 4-7.4 4-.5 0-1 .3-1.2.8-.1.4-2.6 2.5-5.4 4.7-9.7 7.7-20.7 22.1-25.8 33.8-3.1 7.2-3.9 9-4.2 10.4-.1.6-.7 2.7-1.3 4.5-1.9 5.9-3.8 21.1-3.5 29.3.5 17.9 5.3 33.5 15.3 49.8 4.6 7.6 7.1 10.7 15.6 19 3.3 3.3 5.9 6.3 5.8 6.7-.1.5.7.6 1.7.3 1.8-.5 2.5.5 2.1 2.9 0 .4.7.4 1.6.1.9-.4 2.1 0 2.7.9.6.8 2.6 2.1 4.4 2.9 1.7.7 3.2 1.7 3.2 2.1 0 .5.9.8 1.9.8 1.1 0 2.3.5 2.6 1.1.4.6 1.3.8 2.1.5.8-.3 1.7.1 2 .9.3.8 1.2 1.1 2.1.8 1.1-.4 1.4-.2.9.5-.5.8-.2 1 .8.6.9-.3 1.6-.2 1.6.4 0 .6-.6 1.3-1.2 1.5-1 .4-1 .6 0 .6.7.1 1.5-.5 1.8-1.3.5-1.2 1-1.2 4 0 1.9.8 3.4 1.1 3.4.7 0-.4.7.2 1.6 1.3.8 1 1.3 1.3.9.7-.4-.9.2-1.2 1.9-1.1 1.5.1 2.6.6 2.6 1.1 0 .5-.8.6-1.7.2-1.4-.5-1.5-.4-.6.6 1 1 1.5.9 2.8-.1 1.2-1 1.5-1 1.5.1 0 1 .2 1.1.8.2.7-1.2 7.7-1.2 8.9 0 .3.4 1.3.1 2.1-.6 1.3-.9 1.4-.9.8 0-.4.7-.2 1.3.3 1.3.6 0 1.1-.4 1.1-.9 0-.6.9-.9 1.9-.8 1.1 0 1.7.6 1.3 1.2-.3.5.1.4 1-.3 1.4-1.1 1.7-1 2.1.5.4 1.5.5 1.5.6.2.1-2.3 6.5-3 8.8-.9 1.5 1.4 1.6 1.4.4-.3-.9-1.1-1-1.7-.2-1.7 2.1 0 2.6.5 2.4 2.5l-.3 2 .9-2c.5-1.1.7-2.3.5-2.6-.6-1.1 2.5-1.9 3.1-.9.4.6 1.2 1 1.8 1 .8 0 .8-.3-.1-.9-1.1-.7-1.1-.9.2-1.4.9-.4 1.6-.2 1.6.3s.9.8 1.9.7c1.1 0 1.7-.5 1.5-.9-.3-.5-1-.6-1.5-.3-.5.4-.9.1-.9-.6 0-.6.8-.9 2-.6 1.1.3 2 .2 2-.3 0-.4.7-1.1 1.6-1.4 1-.4 1.3-.2.8.7-.4.6.1.5 1.2-.4 1-.9 2.6-1.9 3.4-2.3.8-.3 3-1.5 4.8-2.6 1.7-1.1 3.2-1.6 3.2-1.1s-.6 1.2-1.2 1.4c-1 .4-1 .6 0 .6.8.1 1.6-.8 1.9-1.9.3-1.1.9-2 1.4-2 .8 0 3.5-2 6.4-4.7 1.5-1.4 2.6-.7 1.8 1.3-.3.8-.1 1.4.5 1.4s.9-1.5.6-3.2c-.2-1.8-.1-2.7.2-2.1.3.7 1 1.3 1.5 1.3.6 0 .8-.4.5-.9-.8-1.2 2.8-5.1 4.8-5.1.9 0 1.5-.3 1.5-.8-.3-1.8.2-3.2 1.2-3.2.5 0 .7.6.3 1.2-.4.7.1.6 1.2-.3 1-.9 2.9-1.5 4.1-1.4 1.2.1 2.4-.4 2.7-1.1.4-1-.1-1.1-1.9-.4-1.4.5-2.5.7-2.5.4 0-.4-.7-.1-1.5.6-.9.8-1.5.8-1.5.2 0-.6 1.1-1.9 2.5-3 1.3-1.1 2.1-2.2 1.8-2.6-.3-.3 0-.6.7-.6s1.1-.3.7-.6c-.3-.3.5-1.8 1.9-3.3 1.3-1.4 2.7-3.4 3-4.4.3-1.1 1.2-1.6 2-1.3.7.3 1.6.1 1.9-.5.4-.5.3-.8-.2-.7-1.3.5-1.6-.6-.8-3 .5-1.8 1.2-2.3 3.1-1.9 1.3.2 2.1 0 1.8-.4-.3-.5-1.2-.9-2-.9-1.2 0-1.3-.4-.2-2.3.7-1.2 1.1-2.5 1-3-.1-.4.3-.7.9-.7.5 0 .7-.5.4-1-.3-.6-.2-1 .2-1 .5 0 .9-.8 1-1.8.3-3.7 1-5.5 2.9-7 1.6-1.2 1.6-1.4.2-.9-1 .4-1.8.2-1.8-.3 0-.6.3-1 .8-1 .4 0 .8-1.2.9-2.8.2-1.5.5-3.6.7-4.7.3-1.1.5-2.2.5-2.4.1-.3.8.4 1.7 1.5 1.5 1.7 1.5 1.7 0-.8-1.5-2.6-1.8-11.1-.3-10.1.4.2.7-.1.7-.6 0-.6-.3-1.1-.8-1.1-1 0-.9-10.2.2-11.9.6-.9.5-1.2-.1-.8-1.5.9-2.2-4.9-.9-6.4.8-.9.7-1-.3-.4-1.1.6-1.3.4-.8-.8.3-1 .3-1.7-.1-1.7s-.9-.8-1-1.8c-.3-3-.7-4.7-1.5-5.9-.4-.6-.1-1.4.5-1.6.8-.4.7-.6-.4-.6-1.1-.1-1.6-.8-1.3-2.1.2-1.1 0-2-.6-2-.5 0-.9-.6-.9-1.3 0-2.2-9-19.1-11-20.7-.3-.3-1.3-1.4-2.1-2.6-5.4-8-18.1-19.8-26.3-24.6-2.7-1.6-9.9-5.1-16.1-7.8-2.1-1-11.6-3.7-15.6-4.6-4-.8-19.7-2.3-20.2-1.8zm-1.8 10.6c1.1 1.1 1.3 1 .7 0-.6-1 1.1-1.1 8.1-.8 10.2.6 12.2.9 18.1 2.7 3.7 1.1 4.2 1.6 3.7 3.3-1.5 5.3-1.6 8.2-.3 9.3 1.9 1.5 7.1 2.6 6.3 1.3-.3-.5-.1-1 .5-1s.8-.5.5-1c-.3-.6-.1-1 .5-1 .7 0 1-.7.6-1.5-.3-.8-.1-1.5.4-1.5s.7-.7.4-1.5c-.7-1.8 3.6-1.2 5.1.7.6.7 1.7 1.4 2.5 1.6 2.7.6 8 4.7 8 6.2 0 1.3.1 1.3 1 0s1-1.3 1.1 0c.1.8.1 1.8 0 2.2 0 .4.6.5 1.4.2.8-.4 1.5-.1 1.5.5s.7 1.1 1.7 1.1c.9 0 1.4.3 1 .6-.7.7 1.7 3.4 3.1 3.4.5 0 1.5 1.1 2.2 2.5 1.2 2.2 1.1 2.6-1.2 4.5-2.7 2-4 5.2-2.9 6.6 1.1 1.6 5.5 4.9 4.7 3.6-.4-.7-.1-1.2.9-1.2s1.3.5.9 1.2-.3.8.5.4c.6-.4.9-1.1.6-1.5-.9-1.5 2.9-4.1 4.5-3.1 1.2.8 1.1 1-.5 1-1.7 0-1.7.2.5 1.3 1.6.8 3.9 4.1 6.2 8.7 2 4.1 3.6 7.6 3.6 8-.1.3.1 1.2.5 2 .3.8 1.2 3.9 2 6.8l1.5 5.2-2.7.6c-5.3 1.1-7.1 2.3-7.1 4.8 0 3.9 3.8 5.8 8.9 4.5.7-.2 1.6.3 1.8 1.1.4 1.3.3 1.3-.6 0-.6-.8-1.1-1-1.1-.5 0 .6.5 1.6 1.2 2.3.9.9.9 1.2-.1 1.2-.7 0-.9.5-.4 1.2.4.7.8 2.4.9 3.8.2 3.5-2.4 18.9-3.7 22.2-1 2.6-1.2 2.6-4.5 1.2-3.1-1.3-3.5-1.3-5.4.6-1.1 1.1-2 2.4-2 2.8 0 1 2.6 3.7 5.4 5.6 1.9 1.3 1.9 1.5-.8 7-3.1 6.3-13.1 19.4-16.7 22-2.2 1.5-2.5 1.5-4.7-1.4-2.9-3.7-6.9-4.1-8.1-.8-.9 2.5-.4 4.6 1.6 6.6 1.8 1.8 1.6 3.5-.4 4.8-8.9 5.5-15.5 8.4-24.5 10.9-5 1.4-5.8.9-5.8-3.4 0-2.4-3-4.9-5.4-4.5-2.7.4-3.7 2.4-3.1 6 .3 1.9.1 3.5-.7 4.1-3 2.3-28.8-.2-27.3-2.7.3-.5 0-1.2-.6-1.6-.8-.4-.9-.3-.5.4.5.8 0 1.2-1.3 1.2-1.1 0-2.3-.5-2.6-1-.3-.6-.1-1 .4-1 1.9 0 1.3-8.8-.6-9.8-2.6-1.5-5.8.5-7.2 4.4-.7 1.9-1.6 3.4-2.1 3.4-3.9 0-26-15.8-26-18.5 0-.8-.6-1.5-1.4-1.5-2.6 0-2.5-2.9.2-5.2 3.4-2.8 3.8-6.3 1-8.2-2.2-1.6-4.6-.9-7.6 2.1-1 1-1.8 1.1-2.7.3-1.1-.9-5.8-10-9.8-19-.6-1.4-1.3-2.9-1.6-3.4-.2-.5.2-.6 1-.1 1.1.6 1.1.5.2-.5-.6-.7-.9-1.9-.6-2.8.4-.9.2-1.3-.4-.9-.6.4-1.3-.4-1.5-1.8-.6-2.7.3-3.1 3.2-1.5 1.6.8 1.8.7 1.4-.4-.4-1.1.1-1.4 1.9-1.2 1.9.2 2.4-.1 1.9-1.2-.3-.9-.1-1.3.4-.9.6.4.9-.6.6-2.4-.5-3.6-2.6-4.8-7.4-4.3-4.2.5-3.8 1.2-4.2-8.9-.2-3.9.2-5.2 1.8-6.3 1.1-.8 1.5-1.4.8-1.4-.8 0-1-.5-.6-1.2s.3-.8-.4-.4c-.8.5-1-.3-.7-2.6.5-3.2 1-6.5 1.4-9.8.4-3.7 1.5-4 6.9-2 3.5 1.3 5.1 1.6 4.9.8-.1-.7.3-1.2 1-1.3.6 0 1.5-.4 2-.9s.2-.6-.6-.1c-1.1.6-1.3.3-.8-1.4.6-2.2-.7-4.1-4.9-6.9-1.3-.9-1.4-1.1-.3-.8.9.2 1.6-.2 1.6-1 0-1.2-.4-1.2-2.3.1-1.4.9-2.5 1.1-2.9.5-.3-.6-.1-1 .4-1 .6 0 1.1-.9 1.1-1.9 0-1.1.7-2.6 1.5-3.5.8-.8 1.5-2.2 1.5-3 0-.9.5-1.7 1-1.7.6-.1 1.4-.2 1.9-.3.5 0 1.3-.5 1.8-1 .4-.5.3-.6-.4-.2-.6.3-1.4.2-1.8-.4-.3-.5-.1-1 .4-1 .6 0 1.1-.6 1.1-1.3 0-.6 1.8-3.2 4-5.7s4-4.8 4-5.3c0-.4.5-.7 1.1-.7.5 0 .8.4.5.9-.3.5 0 1.4.8 2 1 .9 1.5.8 1.9-.3.4-.9.1-1.3-.6-1-.7.2-1.3-.4-1.4-1.6-.2-2.3.7-2.5 2.7-.8 1.2 1.1 1.2 1 .2-.4-1-1.2-1-1.8-.1-2.3 1.3-.9 3.1 1.4 2.4 3.2-.2.7.2 1 .9.7.7-.3 2 .4 3 1.5 1.4 1.6 2.2 1.7 4.6.8 3.6-1.4 3.6-3.8-.2-9.6-1.9-2.8-2.4-4.2-1.4-3.8.9.4 1.5.2 1.3-.4-.1-.6 1.7-2.1 4.1-3.4 2.3-1.4 4.2-2.2 4.2-2 0 .7 5.3-2.7 6.2-4 .5-.6.8-.5.8.2s.5 1.3 1.1 1.3c.5 0 .7-.5.3-1.2-.5-.8 0-.9 1.4-.6 1.4.4 2 .2 1.5-.5-.4-.6 0-.8 1-.4 1 .3 1.7.2 1.7-.4 0-.6.4-.8.9-.4.5.3 1.2.1 1.5-.4.3-.4 1.7-.9 3.1-.9 1.3 0 2.2.4 1.9.9-.3.5-.1.9.3.9.5 0 1 1.2 1.1 2.7.1 1.5 1.1 3.6 2.2 4.7 1.6 1.6 2.3 1.8 4.3.9 2.6-1.2 4-5.6 2.4-7.2-.8-.8-.7-1.1.3-1.1 1.1 0 1.1-.3.2-1.2-2.4-2.4-.8-3.9 1.7-1.6zM92 171.4c0 .3-.4.8-1 1.1-.5.3-1 .1-1-.4 0-.6.5-1.1 1-1.1.6 0 1 .2 1 .4z"/><path d="M187.7 92.7c-1 .9-.9 2.3.1 2.3.5 0 .9-.7.9-1.5 0-1.7-.1-1.8-1-.8zM155.5 96c.3.5.8 1 1.1 1 .2 0 .4-.5.4-1 0-.6-.5-1-1.1-1-.5 0-.7.4-.4 1zm42.5 0c.8.5 2 1 2.5 1 .6 0 .3-.5-.5-1s-1.9-1-2.5-1c-.5 0-.3.5.5 1zm-40.4 1.7c-.6 1.4-.5 1.5.5.6.7-.7 1-1.5.7-1.8-.3-.3-.9.2-1.2 1.2zm-15 1.8c-1.1.8-1.5 1.5-.9 1.5s1.6-.7 2.3-1.5c1.6-1.9 1.1-1.9-1.4 0zm6.4-.1c0 .8.4 1.7.9 2 .5.4.7-.3.4-1.4-.6-2.3-1.3-2.6-1.3-.6zm-3.4 1.3c-.6 1.4-.5 1.5.5.6.7-.7 1-1.5.7-1.8-.3-.3-.9.2-1.2 1.2zm25.2.1c-.3 1.1 0 1.9.7 1.9s1-.8.7-1.9c-.2-1-.6-1.8-.7-1.8-.1 0-.5.8-.7 1.8zm-37.5 3.7c0 .7.6 1.1 1.4.8.7-.3 1.3-.6 1.3-.8 0-.2-.6-.5-1.3-.8-.8-.3-1.4.1-1.4.8zm3.7-.6c0 .6.4 1.3 1 1.6.6.3.7-.1.4-.9-.7-1.8-1.4-2.1-1.4-.7zm29.6 1.8c-.6 1.4-.5 1.5.5.6.7-.7 1-1.5.7-1.8-.3-.3-.9.2-1.2 1.2zm-35.3 1.6c.1 1.5.5 2.7 1 2.7 1 0 .9-2.2-.2-3.9-.7-1-.9-.7-.8 1.2zm4.4-.2c.7.7 1.5 1 1.8.7.3-.3-.2-.9-1.2-1.2-1.4-.6-1.5-.5-.6.5zm76.8.9c-.3.5-.1 1 .4 1 .6 0 1.1-.5 1.1-1 0-.6-.2-1-.4-1-.3 0-.8.4-1.1 1zm-7.5 1.9c0 .6.4 1.3 1 1.6.6.3.7-.1.4-.9-.7-1.8-1.4-2.1-1.4-.7zm5.7 1.2c.4 1.3.8 1.8 1.1 1 .2-.7-.1-1.8-.6-2.3-.8-.8-.9-.4-.5 1.3zm-28.6 4.6c-.5 1-1.2 4.3-1.6 7.3-.3 3-.8 6.2-1 7-.3.8-.7 3.5-1 6-.3 2.5-.7 5.6-1 7-.3 1.4-.7 4.5-1 7-.6 4.6-2.1 14.9-3 20.7l-.6 3.2-7.7-.5c-22.3-1.3-22.6-1.3-24.4.2-2.8 2.6-.9 7.2 3.2 7.5.8 0 3.3.3 5.5.5 3.9.4 13.1 1 18.7 1.3 2.1.1 2.6.5 2.2 1.8-.5 1.7-.5 1.7.6 0 1.2-1.9 3.6-2.4 2.4-.5-.5.7-.3.8.7.2 2.1-1.3 4-1.4 3.2-.1-.3.7.5 0 2-1.5 1.5-1.7 2.4-3.6 2.2-4.8-.2-1.2.5-2.9 1.8-4.1 1.9-1.7 1.9-1.9.3-1.3-1.4.5-1.7.3-1.4-.7.3-.8 1.2-1.3 1.9-1.1 1.1.3 1.2.1.2-.9-1.6-1.6-1.7-4.9-.3-4.9.7 0 .7-.6 0-1.9-.7-1.4-.7-2.2 0-2.6.6-.4.8-1.1.4-1.6-.3-.5 0-1.6.6-2.4 1-1.2 1-1.5-.1-1.5-.9 0-1-.3-.4-.8.6-.4 1.1-1.6 1.1-2.7.2-5.7.4-6.6 1.7-5.9.9.5.9.4 0-.6-1-1.1-.9-1.6.5-2.7.9-.8 1.1-1.1.4-.8-1.8.9-1.1-6.7.9-9.1.8-1 .9-1.5.3-1.1-.8.5-1.1-.4-.9-2.6.2-1.7.3-3.4.4-3.6.1-.2 1.1.4 2.4 1.5l2.2 1.9-1.9-2.3c-2.2-2.5-2.9-5.2-1.5-5.2 1 0-1.1-5.2-2.6-6.2-1.8-1.3-4.4-.9-5.4.9zm-48.1 7.2c0 .7-.5.9-1.2.5-.7-.5-.8-.3-.3.5.5.9 1 1 1.8.2.6-.6.8-1.4.4-1.8-.4-.3-.7-.1-.7.6zm-20 1.1c-.9.6-1 1-.3 1 .6 0 1.5-.5 1.8-1 .8-1.2.4-1.2-1.5 0zm15 .1c0 .5.5.7 1 .4.6-.3 1-.8 1-1.1 0-.2-.4-.4-1-.4-.5 0-1 .5-1 1.1z"/><path d="M191 123.4c0 .2.7.7 1.6 1 .8.3 1.2.2.9-.4-.6-1-2.5-1.4-2.5-.6zm-80.4 2.3c-.6 1.4-.5 1.5.5.6.7-.7 1-1.5.7-1.8-.3-.3-.9.2-1.2 1.2zm-3.3 2.8c0 .8.4 1.2.9.9.4-.3.8-.9.8-1.5 0-.5-.4-.9-.8-.9-.5 0-.9.7-.9 1.5zm82.3 7.7c.3.5 1 .6 1.5.3 1.3-.9 1.1-1.2-.6-1.2-.8 0-1.2.4-.9.9zm-87 3.6c-.3.5.1.9.9.9s1.5-.4 1.5-.9c0-.4-.4-.8-.9-.8-.6 0-1.2.4-1.5.8zM189 144c0 .5.5 1 1.1 1 .5 0 .7-.5.4-1-.3-.6-.8-1-1.1-1-.2 0-.4.4-.4 1zm-1.7 9c.1 2.1 1 1.8 1.3-.5.1-.8-.2-1.5-.6-1.5-.5 0-.8.9-.7 2zm-92.6 2.3c-.3.7.3 1.3 1.4 1.3 1.3 0 1.5-.3.7-1.3-.6-.7-1.2-1.3-1.3-1.3-.2 0-.5.6-.8 1.3zm4.8 2.7c.3.5.8 1 1.1 1 .2 0 .4-.5.4-1 0-.6-.5-1-1.1-1-.5 0-.7.4-.4 1zm7.7.6c1 1 2 1.6 2.2 1.3.3-.3-.5-1.1-1.7-1.8-2.1-1.3-2.1-1.2-.5.5zm78.3-.6c.3.5.8 1 1.1 1 .2 0 .4-.5.4-1 0-.6-.5-1-1.1-1-.5 0-.7.4-.4 1zm-91.4 2.7c0 1.1.3 1.3.6.5.2-.6 1-.9 1.5-.6.7.4.8.2.4-.4-1.1-1.8-2.6-1.4-2.5.5zm52.5 23c-.6 1.4-.5 1.5.5.6.7-.7 1-1.5.7-1.8-.3-.3-.9.2-1.2 1.2zm-54.1.3c.3.5.8 1 1.1 1 .2 0 .4-.5.4-1 0-.6-.5-1-1.1-1-.5 0-.7.4-.4 1zm64.6.6c0 1.1.3 1.4.6.6.3-.7.2-1.6-.1-1.9-.3-.4-.6.2-.5 1.3zm5.4-.5c-.4.6-.5 1.2-.2 1.5.2.3.7-.2 1-1.1.7-1.7.1-2-.8-.4zm19.5.4c-1.1 1.3-1 1.4.4.9.9-.3 1.6-1 1.6-1.5 0-1.3-.6-1.1-2 .6zm-15.3 1.6c.7.7 1.5 1 1.8.7.3-.3-.2-.9-1.2-1.2-1.4-.6-1.5-.5-.6.5zm12.3 2c0 .5.5.7 1 .4.6-.3 1-.8 1-1.1 0-.2-.4-.4-1-.4-.5 0-1 .5-1 1.1zm13.5 0c-4.6 1.3-10 6.3-12.5 11.6-1.8 3.8-2.1 5.9-1.7 10.5.6 6.4 2.5 10.4 8 16.3 3.5 3.8 4.2 4.1 8.3 3.9 2.4-.2 4.4.1 4.4.6s-.9.7-2 .5c-1.2-.2-1.8 0-1.5.6.4.5 1.1.7 1.6.4.5-.4.9 0 .9.7.1.7.7.2 1.5-1.2 1.3-2.2 2.1-1.6 1.6 1.2 0 .4.7.4 1.6.1 1.2-.5 1.4-.3.8.8-.5.8-.4 1.1 0 .6 1.7-1.5 1.4-3.6-.3-3-1.3.5-1.4.3-.6-.6.6-.7 2.7-1.3 4.7-1.4 1.9-.1 3.3-.5 3.1-.8-.6-1 3.4-4.2 4.4-3.5.5.3 1.6-.2 2.3-1.2 1.3-1.5 1.2-1.6-.3-.3-1 .7-1.8.9-1.8.3 0-1.5 2.6-3.3 3.5-2.4.5.4.5.1.1-.6s-.1-2.3.6-3.5c2.4-3.6 2.3-12.9-.1-17.6-5.5-10.7-15.6-15.3-26.6-12zm8.4 9.1c1.1 1 1.3 1 .7 0-2.1-3.7 5.9 1.2 8.3 5.1 5.1 8.2-.3 18.6-9.7 19.1-5.5.3-8.8-1.7-12-7.3-1.3-2.2-1.2-2.3.5-1.7 1.7.6 1.7.5.1-.8-1.8-1.3-2.4-5.6-1-7 .4-.4.7-1.3.7-1.9.1-.7.6-1.1 1.3-1 .7.2.9-.4.5-1.4-.4-1.1-.3-1.4.5-.9.7.4 1.2.3 1.2-.2 0-.6.7-1.3 1.6-1.6.8-.3 1.2-.2.9.4-.3.6.1.7.9.4.9-.3 1.3-1 1-1.5-.8-1.4 3-1.1 4.5.3zM191 229c0 .5-.2 1-.4 1-.3 0-.8-.5-1.1-1-.3-.6-.1-1 .4-1 .6 0 1.1.4 1.1 1z"/><path d="M203.3 199.6c0 .8.3 1.2.5.9.3-.3 1.1 0 1.9.7 1.1.8 1.2.7.7-.5-.7-2.1-3.1-2.9-3.1-1.1zm-10.9 5c-1.8 1.4-1.8 1.5.4.4 1.2-.6 2.2-1.3 2.2-1.5 0-.8-.5-.6-2.6 1.1zm-88.9-8.6c-.3.5-.1 1 .4 1 .6 0 1.1-.5 1.1-1 0-.6-.2-1-.4-1-.3 0-.8.4-1.1 1zm-3.6 2.2c-.5 1.8-.6 3.8-.1 3.4.7-.8 1.2-3.6.6-3.6-.2 0-.4.1-.5.2zM222.4 215c0 1.3.4 1.6 1 1 .7-.7.7-1.3 0-2-.6-.6-1-.3-1 1zm-1.7 5.1c.7.7 1.5 1 1.8.7.3-.3-.2-.9-1.2-1.2-1.4-.6-1.5-.5-.6.5zm-1.2 2.8c-.3.5-.2 1.2.3 1.5.5.3.9-.1.9-.9 0-1.7-.3-1.9-1.2-.6zm-.8 4.2c.4 1.3.8 1.8 1.1 1 .2-.7-.1-1.8-.6-2.3-.8-.8-.9-.4-.5 1.3zm-6.2.9c-.3.6.1.7.9.4 1.8-.7 2.1-1.4.7-1.4-.6 0-1.3.4-1.6 1zm-.1 4.6c-1.8 1.4-1.8 1.5.4.4 1.2-.6 2.2-1.3 2.2-1.5 0-.8-.5-.6-2.6 1.1zm-93 .8c.1.8.5 1.8.8 2.2.4.3.5-.1.4-1-.1-.8-.5-1.8-.8-2.2-.4-.3-.5.1-.4 1zm-3.2 2.5c-1.1.6-.9.9.6 1.3s1.9.2 1.5-.8c-.6-1.6-.4-1.6-2.1-.5zm17.1-151.6c-.4.6-.1.7.7.2 1-.6 1.2-.4.7.7-.6 1.7 1.6 1.9 3 .3.5-.4.2-.5-.6 0-1 .6-1.3.4-.9-.7.7-1.6-1.9-2.1-2.9-.5zm-6.8 1.7c-.3.6.1.7.9.4 1.8-.7 2.1-1.4.7-1.4-.6 0-1.3.4-1.6 1zm95.5-.6c0 .2.9.6 2 .9 1.1.3 1.8.1 1.4-.4-.5-.9-3.4-1.3-3.4-.5zm-100.5 4.7c-.4.6-.5 1.2-.2 1.5.2.3.7-.2 1-1.1.7-1.7.1-2-.8-.4zm6-.2c-.3.5-.2 1.2.3 1.5.5.3.9-.1.9-.9 0-1.7-.3-1.9-1.2-.6zm-4 1c-.3.5 0 1.3.6 1.7.7.4.9.3.5-.4-.3-.5 0-1.3.6-1.5.9-.4 1-.6.1-.6-.6-.1-1.4.3-1.8.8zm-5.4 3.8c-.1.6-.4 2-.7 3-.5 1.7-.5 1.7.6 0 .6-1 .9-2.3.6-3-.3-.9-.5-.9-.5 0zm-5.5 1.6c.3 1 .9 1.5 1.2 1.2.3-.3 0-1.1-.7-1.8-1-.9-1.1-.8-.5.6zm.7 4.2c0 .8.4 1.2.9.9.5-.3.6-1 .3-1.5-.9-1.3-1.2-1.1-1.2.6zm-5.8 1.4c-.9 1.5 1.5 2.5 2.8 1.2.9-.9.7-1-.7-.5-1.3.5-1.7.4-1.2-.4.4-.7.5-1.2.2-1.2s-.7.4-1.1.9zm-3.9 3c-.3.5.1 1.1.9 1.4.9.4 1.2.1.8-.9-.6-1.6-1-1.7-1.7-.5zm-3.4 3.3c-1.5 1.5-1.5 2.8-.1 2.8.5 0 .8-.4.4-.9-.3-.6.3-1.4 1.2-2 1-.6 1.3-1.1.8-1.1-.6 0-1.6.5-2.3 1.2zm-4.2 4.7c0 .6.4 1.3 1 1.6.6.3.7-.1.4-.9-.7-1.8-1.4-2.1-1.4-.7zm-1 3.1c0 .5.5 1 1.1 1 .5 0 .7-.5.4-1-.3-.6-.8-1-1.1-1-.2 0-.4.4-.4 1zm-3.1 2.2c-.5 1.8-.6 3.8-.1 3.4.7-.8 1.2-3.6.6-3.6-.2 0-.4.1-.5.2zm-.6 6c.3.9.1 1.9-.6 2.2-.9.3-.9.5 0 .5 1.8.1 2.3-1.3 1.1-2.9-.8-1.2-.9-1.2-.5.2zm-3.5 5.5c.7.3 1.6.2 1.9-.1.4-.3-.2-.6-1.3-.5-1.1 0-1.4.3-.6.6zm-3.3 2.3c-.3.6.1.7.9.4 1.8-.7 2.1-1.4.7-1.4-.6 0-1.3.4-1.6 1zm-1.2 3.7c-.3 1-.8 2.2-1.1 2.7-.3.5 0 .6.5.3 1.1-.7 2.5-4.7 1.7-4.7-.3 0-.7.8-1.1 1.7zm-3.6 7c-1 .9-.9 2.3.1 2.3.5 0 .9-.7.9-1.5 0-1.7-.1-1.8-1-.8zm-4.6 16.4c-.1.9.7 2.3 1.7 3 1.5 1.2 1.6 1.2.6-.1-.6-.8-1.4-2.2-1.7-3-.5-1.3-.6-1.2-.6.1zm197.7 12.6c.6.2.9 1 .6 1.5-.4.7-.2.8.5.4 1.3-.9.5-2.6-1.2-2.5-.9 0-.8.2.1.6zM73.5 176c-.3.5-.1 1 .4 1 .6 0 1.1-.5 1.1-1 0-.6-.2-1-.4-1-.3 0-.8.4-1.1 1zm199.1-.2c-.3.5.1.9.9.9s1.2-.4.9-.9c-.3-.4-.7-.8-.9-.8-.2 0-.6.4-.9.8zm.4 12.2c0 .5.5 1 1 1 .6 0 1-.5 1-1 0-.6-.4-1-1-1-.5 0-1 .4-1 1zm-3.3 19.5c.3.8.9 1.2 1.4.9 1.2-.7 1.1-1.1-.5-1.7-1-.4-1.3-.1-.9.8zm-2.1 2.4c-.3.4.4 1.7 1.7 2.7 2.2 1.9 2.2 1.9.4-.2-.9-1.1-1.4-2.4-1-2.7.3-.4.4-.7 0-.7-.3 0-.8.4-1.1.9zm-.8 9.3c.2 1 .6 1.8.7 1.8.1 0 .5-.8.7-1.8.3-1.1 0-1.9-.7-1.9s-1 .8-.7 1.9zm-6.8 14c-1 2.1-1 2.1.3.6.8-1 1.8-1.4 2.2-1 .5.4.5.1.1-.6-1-1.7-1.4-1.5-2.6 1zm-5 2.8c0 .5.5 1 1 1 .6 0 1-.5 1-1 0-.6-.4-1-1-1-.5 0-1 .4-1 1zm-3.9 11.6c0 1.1.3 1.4.6.6.3-.7.2-1.6-.1-1.9-.3-.4-.6.2-.5 1.3zM247 251c0 .5.5 1 1.1 1 .5 0 .7-.5.4-1-.3-.6-.8-1-1.1-1-.2 0-.4.4-.4 1zm-4.9 1.6c0 1.1.3 1.4.6.6.3-.7.2-1.6-.1-1.9-.3-.4-.6.2-.5 1.3zm-1.7 3.2c.4.3 1.4.7 2.2.8.9.1 1.3 0 1-.4-.4-.3-1.4-.7-2.2-.8-.9-.1-1.3 0-1 .4zm-5.4 5.7c-1.1 1.3-1 1.4.4.9.9-.3 1.6-1 1.6-1.5 0-1.3-.6-1.1-2 .6zm-4 3.6c0 .5.5.7 1 .4.6-.3 1-.8 1-1.1 0-.2-.4-.4-1-.4-.5 0-1 .5-1 1.1zm-9.5.8c.6 1.1.4 1.3-1 .7-1.8-.7-1.8-.6 0 1.4 1 1.1 1.9 2 2 2 .6 0-.3-4.1-1-4.7-.4-.5-.4-.2 0 .6zm5.1 2.3c.3.5 1 .6 1.5.3 1.3-.9 1.1-1.2-.6-1.2-.8 0-1.2.4-.9.9zm-8 2.1c.3 1 .9 1.5 1.2 1.2.3-.3 0-1.1-.7-1.8-1-.9-1.1-.8-.5.6zm-8.1 1.7c-.3.6.1.7.9.4 1.8-.7 2.1-1.4.7-1.4-.6 0-1.3.4-1.6 1zm-57 4c.3.5.8 1 1.1 1 .2 0 .4-.5.4-1 0-.6-.5-1-1.1-1-.5 0-.7.4-.4 1zm14.4.2c-.5 1.8-.6 3.8-.1 3.4.7-.8 1.2-3.6.6-3.6-.2 0-.4.1-.5.2zm31.1.2c0 .2.9.6 2 .9 1.1.3 1.8.1 1.4-.4-.5-.9-3.4-1.3-3.4-.5zm-26.6 2.1c-.4.8-1.1 1.2-1.7.8-.6-.3-.7-.1-.3.5 1 1.6 1.4 1.5 2.6-.8.6-1.1.8-2 .5-2-.3 0-.8.7-1.1 1.5zm7.5-1.3c-.7 2.5-.5 3.6.9 3.4.9-.2 1.8-.9 2-1.7.3-1.1.1-1.1-.7.1-1 1.3-1.5.8-1.2-1.3.1-.6-.8-1.1-1-.5zm12.7 2.3c-1.1.8-1.5 1.5-.9 1.5s1.6-.7 2.3-1.5c1.6-1.9 1.1-1.9-1.4 0zM53 123.4c0 .8.4 1.7.9 2 .5.4.7-.3.4-1.4-.6-2.3-1.3-2.6-1.3-.6zm236 76.8c0 .4.4.8.9.8.6 0 1.2-.4 1.5-.8.3-.5-.1-.9-.9-.9s-1.5.4-1.5.9zm-4 15.2c0 .8.4 1.7.9 2 .5.4.7-.3.4-1.4-.6-2.3-1.3-2.6-1.3-.6zm-9.5 24.6c-.3.5-.1 1 .4 1 .6 0 1.1-.5 1.1-1 0-.6-.2-1-.4-1-.3 0-.8.4-1.1 1zm-4.5 4.4c0 .2.9.6 2 .9 1.1.3 1.8.1 1.4-.4-.5-.9-3.4-1.3-3.4-.5zm.3 3.1c0 .8.4 1.2.9.9.5-.3.6-1 .3-1.5-.9-1.3-1.2-1.1-1.2.6zm-4.3 4c0 .8.4 1.5.8 1.5.5 0 .9-.7.9-1.5s-.4-1.5-.9-1.5c-.4 0-.8.7-.8 1.5zm-2.6 4c-1 .8-1.4 1.5-.8 1.5.6 0 1.7-.7 2.4-1.5 1.6-1.9.9-1.9-1.6 0zm-4.8 2.4c-.3.4.2 1.6 1.2 2.4 1.6 1.5 1.8 1.5 1.8-.2 0-1.2-.5-1.7-1.5-1.3-.9.3-1.2.1-.7-.6.4-.7.5-1.2.2-1.2s-.7.4-1 .9zm-.6 4.5c0 .2.7.9 1.5 1.6.9.7 1.5.8 1.5.2 0-.5-.7-1.2-1.5-1.6-.8-.3-1.5-.4-1.5-.2zm-4 2c0 .2.9.6 2 .9 1.1.3 1.8.1 1.4-.4-.5-.9-3.4-1.3-3.4-.5zm-8.4 7.1c-1.8 1.3-1.8 1.4.2 1.2 1.1 0 1.9-.4 1.6-.8-.2-.4.2-1 .8-1.2.7-.3.9-.6.3-.6-.5 0-1.8.6-2.9 1.4zm-5.6 3.9c0 .2.7.7 1.6 1 .8.3 1.2.2.9-.4-.6-1-2.5-1.4-2.5-.6zm0 3.6c-.9.6-1 1-.3 1 .6 0 1.5-.5 1.8-1 .8-1.2.4-1.2-1.5 0zm-6.4 1.2c.3.4.9.8 1.5.8.5 0 .9-.4.9-.8 0-.5-.7-.9-1.5-.9s-1.2.4-.9.9zm-7.1 3.8c-.2.3.5.7 1.6.7 1 .1 1.9-.2 1.9-.6 0-.9-2.9-1-3.5-.1zm-6.3 2.9c-1.1.7-1.1.9 0 1.4.9.3 1.5-.1 1.5-.9s-.1-1.4-.1-1.4c-.1 0-.7.4-1.4.9zm3.6.3c-.7 1.7 1.5 1.9 2.9.3.4-.4.3-.5-.4-.2-.6.4-1.3.2-1.5-.5-.3-.8-.6-.6-1 .4zm-9.8 4.7c0 .6.4 1.2.8 1.5.5.3.9-.1.9-.9s-.4-1.5-.9-1.5c-.4 0-.8.4-.8.9zm-39.1 3.3c-.7 2.3-.4 3.5.7 3.5.9 0 1.1-.4.4-1.2-.5-.7-.7-1.5-.3-1.8.3-.4.3-.7 0-.7-.4 0-.7.1-.8.2zM186 298c-.9.6-1 1-.3 1 .6 0 1.5-.5 1.8-1 .8-1.2.4-1.2-1.5 0zm85.5-186c.3.5.8 1 1.1 1 .2 0 .4-.5.4-1 0-.6-.5-1-1.1-1-.5 0-.7.4-.4 1zm14.1 3.3c.3 1 .9 1.5 1.2 1.2.3-.3 0-1.1-.7-1.8-1-.9-1.1-.8-.5.6zm-2.3 3.7c.1 2.1 1 1.8 1.3-.5.1-.8-.2-1.5-.6-1.5-.5 0-.8.9-.7 2zm16.1 44.5c0 1.3.3 2.2.7 1.9.8-.4.6-3-.2-3.8-.3-.3-.5.5-.5 1.9zM296 166c-.9.6-1 1-.3 1 .6 0 1.5-.5 1.8-1 .8-1.2.4-1.2-1.5 0zm17 72.4c0 .2.8 1 1.8 1.7 1.5 1.3 1.6 1.2.3-.4s-2.1-2.1-2.1-1.3zm-7 5c0 .2.7.7 1.6 1 .8.3 1.2.2.9-.4-.6-1-2.5-1.4-2.5-.6zm10.6 28.8c.3.4.9.8 1.5.8.5 0 .9-.4.9-.8 0-.5-.7-.9-1.5-.9s-1.2.4-.9.9zm-4.6 3.3c0 .2.6.8 1.3 1.4 1 .8 1.4.7 1.4-.2 0-.8-.6-1.4-1.4-1.4-.7 0-1.3.1-1.3.2zm1.6 5.2c-.6 1.4-.5 1.5.5.6.7-.7 1-1.5.7-1.8-.3-.3-.9.2-1.2 1.2zM302 290.9c0 .6-1 .8-2.1.6-1.2-.3-1.8-.1-1.5.3.4.4 1.3.7 1.9.7.7.1 1.1.7.9 1.5-.2.8 0 1.2.4.7.9-.9 1.6-4.7.9-4.7-.3 0-.5.4-.5.9zm-6.5 7.2c-.3.4.2.6 1 .5 2.1-.3 2.8-1.3 1-1.3-.9 0-1.8.4-2 .8zm-7.5 7c1.3 2.3 2.2 2.5 1.3.2-.5-1.2-.3-1.4.8-.8.8.5 1.1.4.6 0-.4-.5-1.4-1-2.2-1.1-1.2-.2-1.2.2-.5 1.7zm-3.6 2.7c.4.3 1.4.7 2.2.8.9.1 1.3 0 1-.4-.4-.3-1.4-.7-2.2-.8-.9-.1-1.3 0-1 .4zm-1.1 2.7c0 .8.4 1.2.9.9.5-.3.6-1 .3-1.5-.9-1.3-1.2-1.1-1.2.6zm-120.3-.1c0 .2.8 1 1.8 1.7 1.5 1.3 1.6 1.2.3-.4s-2.1-2.1-2.1-1.3zm118 1c0 .8.4 1.7.9 2 .5.4.7-.3.4-1.4-.6-2.3-1.3-2.6-1.3-.6zm-3 1.1c-1.1 1.3-1 1.4.4.9.9-.3 1.6-1 1.6-1.5 0-1.3-.6-1.1-2 .6zm-5.4 2.4c-1.9.7-1.9.8 0 1.3 1.3.3 2.1 0 2.1-.8s-.1-1.4-.1-1.3c-.1 0-1 .4-2 .8zm4.1 1.2c.7.7 1.5 1 1.8.7.3-.3-.2-.9-1.2-1.2-1.4-.6-1.5-.5-.6.5zm-6.7 3.3c0 .2.8 1 1.8 1.7 1.5 1.3 1.6 1.2.3-.4s-2.1-2.1-2.1-1.3zm-3.2 3.9c.2 1 .5 1.6.6 1.5.1-.2.7-1 1.3-1.8 1-1.3.8-1.6-.6-1.6-1.3 0-1.7.6-1.3 1.9zm-60.2.4c-.6 1.4-.5 1.5.5.6.7-.7 1-1.5.7-1.8-.3-.3-.9.2-1.2 1.2zm56.4-.8c0 .7-.5.9-1.2.5-.7-.5-.8-.3-.3.5.5.9 1 1 1.8.2.6-.6.8-1.4.4-1.8-.4-.3-.7-.1-.7.6zm-60 3c0 .6.4 1.2.8 1.5.5.3.9-.1.9-.9s-.4-1.5-.9-1.5c-.4 0-.8.4-.8.9zm54.6 2.6c-.9 2.6-.7 3.2.5 1.2.6-1 .9-2.1.6-2.3-.2-.3-.7.2-1.1 1.1zm-52.1.6c-.4.6-.5 1.2-.2 1.5.2.3.7-.2 1-1.1.7-1.7.1-2-.8-.4zm44.2 3.3c-.4 1 .1 1.2 1.4.9 2.3-.6 2.4-.9.5-1.6-.8-.3-1.7 0-1.9.7zm-8.4 3.9c0 .7.8 1.3 1.8 1.3 1.3 0 1.5-.3.7-1.3-.6-.7-1.4-1.3-1.8-1.3-.3 0-.7.6-.7 1.3zm-13.9 4.5c.3.5 0 1.3-.6 1.5-.9.4-1 .6-.1.6 1.7.1 2.5-1.6 1.2-2.5-.7-.4-.9-.3-.5.4zm7.4.9c.7.3 1.6.2 1.9-.1.4-.3-.2-.6-1.3-.5-1.1 0-1.4.3-.6.6z"/></svg>