<?xml version="1.0" standalone="no"?>
<!DOCTYPE svg PUBLIC "-//W3C//DTD SVG 20010904//EN"
 "http://www.w3.org/TR/2001/REC-SVG-20010904/DTD/svg10.dtd">
<svg version="1.0" xmlns="http://www.w3.org/2000/svg"
 width="512.000000pt" height="512.000000pt" viewBox="0 0 512.000000 512.000000"
 preserveAspectRatio="xMidYMid meet">
<metadata>
Created by potrace 1.11, written by Peter Selinger 2001-2013
</metadata>
<g transform="translate(0.000000,512.000000) scale(0.100000,-0.100000)"
fill="#000000" stroke="none">
<path d="M501 4608 c-324 -324 -451 -458 -451 -474 0 -25 19 -44 315 -329 109
-104 216 -208 238 -230 67 -65 97 -84 119 -76 21 7 894 874 909 902 7 13 -57
82 -313 338 -230 229 -328 321 -344 321 -16 0 -148 -126 -473 -452z"/>
<path d="M1630 4701 c-22 -22 -40 -44 -40 -49 0 -6 95 -105 210 -222 116 -117
210 -219 210 -229 0 -11 -18 -23 -52 -35 -312 -110 -614 -352 -813 -651 -83
-125 -101 -157 -160 -293 -23 -53 -48 -98 -56 -99 -15 -3 -35 14 -250 218
-163 156 -201 189 -211 189 -14 0 -88 -74 -88 -88 0 -7 14 -39 31 -70 17 -31
44 -79 59 -107 15 -27 49 -90 75 -140 26 -49 76 -142 110 -205 34 -63 84 -155
110 -205 26 -49 51 -94 55 -100 18 -25 33 -95 36 -169 1 -45 5 -88 7 -96 3 -8
8 -39 12 -67 7 -68 54 -254 67 -270 6 -7 8 -13 5 -13 -10 0 52 -142 110 -250
124 -234 351 -476 587 -627 65 -42 257 -143 271 -143 4 0 21 -6 38 -14 36 -16
151 -54 188 -62 126 -27 231 -44 305 -49 110 -8 132 -14 241 -74 49 -26 151
-80 228 -121 77 -40 145 -76 150 -80 6 -4 60 -33 120 -65 61 -32 138 -73 173
-91 34 -19 71 -34 81 -34 20 0 101 82 101 102 0 6 -95 107 -211 224 -234 235
-232 233 -147 269 24 10 59 25 78 33 19 9 38 16 41 17 3 0 53 28 111 62 298
175 519 408 673 707 29 57 52 106 50 108 -7 6 41 92 53 96 7 2 105 -88 218
-199 112 -112 213 -208 224 -213 15 -7 28 -1 59 25 67 58 66 60 -65 305 -64
121 -135 255 -159 299 -23 44 -72 134 -108 201 -76 142 -74 137 -82 239 -24
319 -135 627 -319 885 -21 30 -50 67 -64 82 -30 33 -32 73 -4 99 38 35 61 25
156 -71 59 -60 95 -90 110 -90 31 0 173 142 198 197 26 59 25 139 -2 194 -30
59 -345 372 -397 394 -52 22 -132 21 -183 -3 -56 -25 -200 -167 -200 -197 0
-15 30 -52 90 -112 53 -53 90 -99 90 -110 0 -11 -11 -32 -24 -46 -30 -32 -56
-27 -116 23 -115 95 -328 212 -480 263 -41 14 -127 36 -190 50 -114 25 -164
32 -309 42 -77 6 -71 3 -271 113 -25 13 -88 47 -140 75 -52 27 -108 58 -125
67 -41 24 -120 67 -250 135 -60 32 -114 61 -120 65 -34 25 -55 21 -95 -19z
m1133 -866 c371 -57 717 -289 912 -610 70 -115 136 -284 159 -405 18 -90 21
-135 21 -265 0 -165 -8 -227 -41 -343 -64 -220 -169 -399 -333 -562 -217 -217
-448 -330 -769 -376 -47 -7 -299 -7 -310 0 -5 3 -31 8 -58 12 -75 10 -210 50
-304 91 -380 165 -653 493 -745 897 -41 180 -39 400 6 585 126 514 538 895
1056 977 21 3 39 7 41 8 10 11 285 4 365 -9z"/>
<path d="M2449 3596 c-2 -2 -24 -7 -49 -10 -134 -18 -318 -93 -447 -183 -215
-151 -369 -396 -417 -665 -23 -125 -15 -317 18 -442 103 -398 407 -683 821
-772 52 -11 278 -13 340 -3 297 48 554 207 709 439 244 364 248 817 10 1176
-143 217 -402 395 -639 440 -22 4 -47 9 -55 11 -19 6 -286 13 -291 9z m-342
-467 c35 -35 154 -154 263 -263 l199 -199 48 17 c26 10 62 24 78 31 111 48
345 135 367 137 15 1 38 -4 53 -12 27 -14 63 -74 59 -97 -1 -7 -2 -22 -3 -34
-1 -27 -49 -68 -103 -89 -24 -9 -145 -56 -270 -105 -189 -72 -233 -86 -262
-81 -29 6 -86 57 -329 299 -162 161 -300 302 -306 314 -21 42 -13 83 24 120
31 31 39 34 76 30 34 -4 52 -15 106 -68z"/>
<path d="M4395 1610 c-11 -5 -215 -203 -452 -442 -293 -293 -434 -441 -437
-458 -2 -14 1 -33 6 -43 5 -10 142 -150 304 -312 267 -267 298 -295 327 -295
30 0 72 39 478 444 311 312 445 452 447 470 3 20 -46 74 -303 330 -169 168
-310 306 -315 306 -5 0 -14 2 -22 4 -7 3 -22 1 -33 -4z"/>
</g>
</svg>
