<?xml version="1.0" standalone="no"?>
<!DOCTYPE svg PUBLIC "-//W3C//DTD SVG 20010904//EN"
 "http://www.w3.org/TR/2001/REC-SVG-20010904/DTD/svg10.dtd">
<svg version="1.0" xmlns="http://www.w3.org/2000/svg"
 width="360.000000pt" height="360.000000pt" viewBox="0 0 360.000000 360.000000"
 preserveAspectRatio="xMidYMid meet">
<metadata>
Created by potrace 1.11, written by Peter Selinger 2001-2013
</metadata>
<g transform="translate(0.000000,360.000000) scale(0.100000,-0.100000)"
fill="#000000" stroke="none">
<path d="M1146 3374 c-241 -122 -401 -236 -556 -394 -149 -152 -250 -276 -245
-301 5 -23 77 -128 123 -177 18 -20 15 -27 -20 -57 -48 -40 -50 -48 -32 -117
9 -35 18 -70 20 -78 14 -62 77 -291 95 -351 13 -41 23 -76 24 -79 1 -3 9 -32
20 -65 10 -33 19 -64 20 -70 5 -19 58 -170 71 -202 8 -17 14 -34 14 -37 0 -12
57 -126 104 -206 52 -90 131 -198 178 -242 15 -14 28 -31 28 -37 0 -6 5 -11
12 -11 6 0 28 -18 49 -39 20 -22 40 -37 43 -34 3 4 6 -1 6 -11 0 -9 4 -15 9
-12 11 7 33 -19 24 -28 -4 -4 0 -4 10 0 12 4 20 -1 26 -17 5 -13 10 -18 10
-10 1 10 7 7 20 -7 10 -12 22 -18 26 -14 5 4 5 -1 2 -11 -4 -11 -3 -16 4 -12
5 4 16 1 24 -5 8 -7 15 -10 15 -6 0 3 9 -2 19 -11 11 -9 18 -20 15 -24 -2 -4
5 -5 16 -2 11 3 20 1 20 -4 0 -5 12 -15 26 -21 14 -7 22 -17 19 -22 -3 -6 1
-7 9 -4 9 3 16 1 16 -6 0 -6 5 -8 10 -5 6 3 10 1 10 -4 0 -6 5 -11 11 -11 6 0
30 -13 53 -28 22 -15 50 -32 61 -36 l20 -8 -20 -9 c-18 -8 -18 -9 3 -5 32 6
52 -3 52 -23 0 -14 2 -14 10 -1 6 10 10 11 10 3 0 -7 7 -13 15 -13 8 0 15 -4
15 -8 0 -4 16 -14 35 -21 19 -7 35 -17 35 -22 0 -5 9 -9 19 -9 11 0 27 -10 36
-22 8 -13 18 -22 21 -20 7 5 64 -22 64 -30 0 -5 10 -8 21 -8 16 0 20 -5 17
-18 -3 -11 0 -19 8 -19 7 0 11 4 8 9 -7 11 -2 10 40 -7 23 -10 36 -11 36 -5 0
6 5 8 10 5 6 -3 10 0 10 7 0 8 13 21 28 30 l29 17 51 -67 c28 -37 64 -81 79
-99 l29 -32 53 24 c63 30 65 30 57 8 -9 -23 4 -9 18 19 7 13 16 23 21 24 12 1
68 26 75 34 3 3 25 16 50 29 25 13 53 30 62 38 15 13 16 13 12 -9 -3 -19 -2
-18 7 5 6 15 17 27 25 27 8 0 14 3 14 8 0 4 9 13 21 20 17 11 20 11 14 0 -5
-7 2 -3 13 9 12 12 35 30 52 39 16 10 30 22 30 27 0 4 5 5 10 2 6 -3 10 1 10
11 0 11 6 15 20 11 12 -3 18 -1 14 5 -7 11 31 50 40 41 3 -4 6 2 6 11 0 12 5
16 15 12 8 -3 14 -2 14 2 -3 21 3 32 17 32 9 0 12 5 8 12 -4 6 -3 8 3 5 6 -4
14 3 17 16 6 21 7 21 20 4 12 -16 14 -16 20 -2 3 9 2 13 -4 10 -23 -14 -7 16
30 56 22 24 40 48 40 52 0 5 4 6 9 3 4 -3 13 6 20 20 9 22 16 25 39 20 27 -6
27 -6 4 7 l-23 13 25 14 c14 7 23 16 21 20 -2 3 7 18 21 33 13 14 24 35 24 46
0 10 -27 56 -60 100 -61 83 -70 98 -47 85 7 -4 9 -3 4 2 -5 5 -13 10 -18 10
-5 1 -12 2 -16 3 -3 0 2 10 12 21 15 16 21 18 33 7 13 -10 14 -9 8 1 -5 8 -1
21 10 33 22 25 26 49 11 68 -7 9 -7 12 -1 8 6 -3 11 0 11 8 0 8 -3 12 -7 10
-11 -7 -41 112 -33 131 4 11 2 15 -4 11 -6 -4 -14 0 -17 9 -5 12 -2 15 11 10
16 -5 16 -5 2 6 -9 7 -19 31 -23 53 -4 22 -13 46 -19 54 -9 12 -9 13 0 7 9 -5
11 -2 7 8 -3 9 -11 16 -16 16 -6 0 -4 8 3 17 12 14 12 16 0 8 -11 -6 -13 -4
-8 8 3 9 2 19 -3 22 -5 3 -7 14 -5 25 3 13 0 18 -7 14 -7 -5 -9 -1 -5 9 3 10
3 17 -2 17 -13 0 -20 49 -7 54 6 2 3 5 -6 5 -17 1 -23 24 -21 78 1 7 -4 10
-10 6 -6 -4 -8 2 -5 15 4 12 2 20 -3 16 -5 -3 -9 1 -10 8 0 7 -3 25 -5 41 -3
15 -1 27 3 26 19 -3 46 2 40 7 -3 4 -2 14 3 24 6 11 4 24 -5 38 -12 16 -12 21
-2 25 9 4 9 6 -1 6 -7 1 -10 6 -7 11 3 6 1 10 -5 10 -7 0 -10 6 -7 14 3 8 2
16 -2 18 -4 2 -14 17 -22 33 -12 25 -20 30 -50 29 -33 -1 -35 1 -76 85 -51
106 -95 184 -108 193 -6 4 -2 13 9 21 16 12 22 12 33 1 14 -14 17 -30 6 -37
-5 -2 -2 -2 6 0 7 2 19 -1 25 -6 12 -10 66 -10 60 1 -2 4 0 9 5 13 15 9 3 32
-53 110 -93 130 -130 154 -157 103 -8 -16 -5 -27 14 -57 22 -34 24 -40 11 -53
-13 -13 -26 -3 -109 80 -52 52 -92 98 -89 103 3 5 -2 6 -10 3 -11 -4 -16 0
-16 11 0 9 -4 13 -10 10 -5 -3 -10 1 -10 10 0 12 5 15 18 10 14 -5 15 -4 5 6
-7 7 -13 21 -13 31 0 11 -29 37 -76 69 -67 45 -79 50 -100 40 -13 -6 -24 -15
-24 -21 0 -10 -52 16 -100 50 -39 28 -260 160 -267 160 -4 0 -14 6 -22 14 -9
7 -41 26 -71 42 -30 16 -57 31 -60 34 -5 5 -57 34 -116 65 -41 21 -54 19 -93
-14 -19 -17 -38 -28 -43 -25 -4 3 -29 33 -55 67 -25 34 -54 70 -62 79 -9 9
-22 24 -29 33 -7 8 -16 15 -20 15 -4 -1 -65 -30 -136 -66z m142 -73 c9 -14 19
-28 23 -31 4 -3 37 -45 75 -95 37 -49 72 -91 76 -93 4 -2 8 -10 8 -17 0 -7 3
-15 8 -17 11 -5 72 -90 72 -102 0 -5 -3 -7 -6 -4 -3 4 -20 2 -37 -3 -18 -6
-43 -12 -57 -15 -43 -9 -192 -76 -260 -117 -176 -107 -318 -257 -423 -445
l-34 -63 -22 28 c-11 15 -24 33 -29 38 -4 6 -28 37 -52 70 -25 33 -47 62 -50
65 -3 3 -27 34 -53 70 -26 36 -52 71 -58 78 -11 14 12 57 25 45 4 -4 4 1 0 11
-6 17 -8 16 -21 -8 -7 -14 -18 -26 -23 -26 -16 0 -12 8 24 45 19 19 32 35 30
35 -7 0 22 32 135 149 58 60 94 90 102 86 7 -5 10 -4 6 2 -6 10 12 32 52 65
11 10 21 15 21 11 0 -3 10 5 23 19 12 14 30 24 39 23 10 -2 17 0 17 3 -3 20 3
32 14 32 8 0 33 14 57 31 23 17 55 35 71 41 16 5 29 14 29 19 0 5 7 9 16 9 8
0 12 -4 9 -10 -4 -6 1 -7 11 -3 11 4 15 3 10 -5 -3 -6 -2 -13 3 -16 5 -4 8 2
7 11 -2 9 -8 19 -15 21 -9 3 -9 7 0 18 10 12 14 12 20 2 7 -10 9 -10 9 -1 0
14 80 59 80 46 0 -5 5 -1 10 8 14 23 40 19 58 -10z m300 -131 c3 -8 0 -10 -8
-5 -9 5 -11 4 -6 -4 5 -7 13 -8 23 -2 16 9 73 -16 73 -32 0 -5 5 -5 10 -2 6 3
10 1 10 -4 0 -6 6 -11 13 -11 7 0 23 -9 35 -20 12 -11 25 -19 29 -18 9 3 83
-41 83 -48 0 -3 -4 -3 -9 1 -5 3 -12 1 -15 -4 -4 -5 6 -7 23 -5 29 5 66 -19
56 -36 -3 -5 5 -7 19 -4 13 2 29 -2 36 -11 9 -10 9 -15 1 -15 -6 0 -11 6 -12
13 0 9 -2 9 -6 -1 -2 -6 -9 -9 -15 -6 -6 4 -69 8 -140 9 l-130 2 -35 44 c-63
79 -114 159 -108 169 4 6 11 8 16 4 5 -3 7 -9 4 -14 -3 -5 -1 -11 4 -15 6 -3
8 5 5 20 -4 22 -2 24 18 16 12 -4 24 -14 26 -21z m102 -304 c0 12 29 12 49 -1
9 -5 12 -4 8 1 -3 6 14 9 40 9 27 -1 48 -7 54 -16 7 -11 9 -10 9 5 0 17 1 18
26 1 15 -9 23 -12 20 -6 -4 6 -2 11 3 11 10 0 15 -13 12 -32 -1 -9 25 -4 41 9
8 7 19 8 28 3 8 -5 18 -6 22 -4 4 3 8 1 8 -4 0 -5 14 -8 30 -7 17 1 37 -4 45
-11 7 -8 23 -14 34 -14 13 0 21 -7 21 -17 0 -15 2 -15 9 -4 7 12 13 12 24 3 7
-7 18 -8 22 -4 5 4 5 1 1 -5 -5 -9 -1 -13 11 -13 25 0 116 -58 109 -69 -4 -5
3 -7 14 -4 12 3 20 0 20 -6 0 -7 -5 -9 -12 -5 -7 5 -8 3 -3 -5 5 -9 11 -9 17
-3 12 12 38 -8 38 -30 0 -10 3 -9 10 2 9 13 10 13 11 0 1 -8 1 -18 0 -22 0 -4
7 -4 16 -1 13 5 15 2 10 -11 -4 -11 -3 -15 4 -10 9 5 85 -67 144 -137 47 -57
139 -216 151 -261 1 -5 2 -9 4 -10 1 -2 3 -10 5 -18 3 -8 13 -46 24 -83 56
-191 47 -441 -21 -642 -65 -190 -204 -379 -368 -502 -61 -46 -222 -133 -245
-133 -8 0 -15 -4 -15 -8 0 -4 -8 -8 -17 -9 -10 -1 -43 -8 -73 -17 -91 -27
-128 -31 -280 -30 -149 0 -217 11 -338 55 -68 24 -175 78 -184 93 -4 6 -8 7
-8 1 0 -7 -3 -7 -8 0 -4 6 -27 24 -52 40 -64 43 -189 170 -237 241 -46 67
-115 194 -106 194 3 0 0 6 -6 13 -6 8 -8 17 -4 20 3 4 1 7 -6 7 -7 0 -10 4 -6
9 3 5 1 12 -4 16 -5 3 -8 14 -6 25 2 12 0 18 -6 15 -7 -5 -14 32 -10 58 0 4
-4 7 -11 7 -6 0 -9 3 -5 6 3 3 1 18 -5 33 -15 39 -18 62 -7 56 5 -4 9 -2 9 4
0 5 -5 11 -11 13 -6 2 -11 50 -13 126 -2 90 1 122 9 118 6 -2 12 2 12 10 0 7
-5 11 -10 7 -14 -8 10 146 31 197 3 8 7 20 8 25 8 40 18 56 33 51 14 -5 14 -4
-1 6 -15 11 -15 14 2 37 10 15 18 28 18 31 2 20 16 39 25 33 6 -3 7 -1 3 5 -6
11 18 71 34 82 4 3 13 15 19 28 7 13 19 31 26 40 8 9 27 34 43 54 16 21 32 35
35 32 3 -3 8 4 12 15 3 12 10 21 15 21 5 0 29 21 54 46 28 27 52 44 61 41 8
-4 12 -1 10 6 -4 12 84 72 135 92 14 6 40 18 58 28 17 10 33 15 33 12 1 -3 2
-9 3 -14 0 -5 5 -13 10 -18 6 -5 6 -2 1 6 -6 11 -4 13 11 8 18 -7 18 -6 2 7
-23 17 -23 21 2 24 11 1 29 3 39 4 11 1 17 7 14 12 -4 5 1 7 9 3 9 -3 20 -1
26 5 12 12 35 1 27 -13 -4 -5 3 -5 18 0 14 6 28 7 31 4 3 -4 6 -1 6 6 0 7 -9
9 -27 5 -19 -5 -25 -3 -18 4 15 15 82 21 96 8 9 -8 10 -8 4 3 -6 11 -4 13 8 8
10 -4 17 -1 17 6 0 8 4 6 10 -3 5 -8 10 -10 10 -4z m254 -17 c-3 -5 -10 -7
-15 -3 -5 3 -7 10 -3 15 3 5 10 7 15 3 5 -3 7 -10 3 -15z m-1306 -570 c28 -37
52 -75 52 -84 0 -9 -7 -40 -15 -68 -19 -67 -38 -178 -39 -229 0 -21 -12 -14
-19 12 -3 12 -1 18 5 14 6 -4 2 5 -7 20 -13 19 -14 26 -4 26 9 0 7 4 -4 13
-10 7 -18 29 -19 54 -2 22 -6 39 -10 36 -7 -4 -13 37 -9 60 0 4 -4 7 -9 7 -5
0 -10 5 -10 11 0 5 6 7 13 3 6 -4 4 2 -6 13 -11 12 -15 27 -11 38 6 13 4 16
-5 10 -10 -5 -11 -2 -6 14 3 12 2 21 -3 21 -6 0 -9 8 -8 18 2 9 -4 28 -13 42
-15 23 -15 24 4 17 18 -6 19 -6 3 6 -14 11 -15 16 -5 27 9 10 9 11 0 6 -19
-11 -15 5 5 20 20 15 31 5 120 -107z m2267 -579 c-3 -6 -1 -10 4 -10 6 0 10
-3 10 -7 -1 -5 0 -10 1 -13 2 -6 7 -25 14 -58 3 -12 8 -27 11 -32 3 -5 8 -18
10 -27 2 -10 19 -80 38 -155 32 -129 33 -138 17 -153 -9 -8 -19 -15 -23 -15
-14 0 -123 156 -119 170 3 8 1 12 -3 8 -14 -13 -33 24 -25 47 19 47 23 61 24
77 1 9 5 20 10 25 5 5 6 2 1 -6 -6 -10 -4 -12 4 -7 8 5 9 12 3 19 -5 7 -8 21
-5 32 11 53 15 83 15 114 0 27 2 31 10 18 5 -10 6 -22 3 -27z m-81 -421 c-3
-5 -1 -9 5 -9 8 0 129 -153 238 -301 10 -14 3 -28 -49 -90 -150 -181 -327
-337 -493 -435 -96 -56 -266 -146 -269 -142 -2 2 -55 72 -120 156 -92 121
-116 158 -111 175 5 16 4 18 -3 8 -12 -17 -28 -8 -35 20 -5 17 -2 20 14 16 10
-3 17 -1 13 4 -3 5 0 9 5 9 6 0 11 -4 11 -9 0 -5 8 -11 18 -13 11 -3 19 0 19
7 0 7 -6 11 -14 8 -7 -3 -13 -1 -13 4 0 5 11 10 25 11 14 1 39 9 55 17 17 9
30 13 30 10 0 -4 6 -3 13 2 6 4 14 8 17 9 3 0 18 6 33 12 16 7 33 9 39 6 6 -4
8 -3 5 3 -3 5 7 17 24 27 16 9 29 13 29 8 0 -4 6 -16 13 -27 11 -14 16 -15 22
-5 6 9 4 11 -5 5 -10 -6 -12 -4 -7 9 4 10 3 15 -3 11 -6 -3 -10 1 -10 9 0 9 4
16 8 16 5 0 19 9 32 20 12 11 26 17 30 15 4 -3 11 2 14 11 4 9 13 14 22 10 8
-3 13 -2 10 3 -8 12 52 53 66 45 7 -4 8 -3 4 4 -9 15 40 65 54 57 6 -4 9 -1 8
7 -2 7 3 12 10 10 8 -1 11 2 6 9 -3 6 5 23 20 38 14 14 39 43 55 63 15 21 32
34 36 30 5 -4 5 1 2 11 -4 9 -3 17 2 17 5 0 14 14 21 30 7 17 17 33 23 37 6 4
7 1 2 -7 -5 -9 -4 -11 4 -6 6 4 9 11 6 16 -8 13 14 52 25 45 4 -3 7 3 5 12 -4
29 6 35 26 17 10 -9 16 -21 13 -25z m-1196 -614 c3 2 13 0 23 -6 14 -7 19 -6
20 3 0 8 2 9 5 2 3 -6 16 -9 31 -6 18 3 24 1 19 -7 -4 -6 -11 -9 -16 -6 -4 3
-11 -2 -14 -11 -3 -9 -2 -12 5 -9 5 4 18 1 27 -7 15 -12 16 -11 4 4 -11 13
-11 18 0 24 19 12 78 12 71 1 -4 -6 -1 -7 8 -2 7 5 26 10 41 12 22 2 29 -2 34
-23 4 -14 9 -23 12 -20 2 3 19 -14 36 -37 18 -23 45 -59 60 -79 l27 -37 -24
-16 c-28 -18 -26 -18 -195 82 -41 24 -78 43 -83 43 -5 0 -9 4 -9 9 0 5 -9 11
-21 14 -12 3 -18 10 -14 16 3 7 0 8 -9 5 -9 -3 -16 -1 -16 5 0 6 -7 11 -15 11
-8 0 -15 5 -15 10 0 6 -6 10 -13 10 -7 0 -22 7 -33 15 -17 13 -16 14 15 5 19
-5 37 -8 39 -5z"/>
<path d="M1236 3278 c2 -4 14 -5 26 -3 32 7 32 13 -1 11 -16 0 -27 -4 -25 -8z"/>
<path d="M1226 3257 c3 -10 9 -15 12 -12 3 3 0 11 -7 18 -10 9 -11 8 -5 -6z"/>
<path d="M1054 3198 c-4 -5 -3 -12 0 -15 3 -4 6 -1 6 6 0 7 4 10 9 6 5 -3 12
-2 15 3 3 5 -2 9 -10 9 -8 0 -17 -4 -20 -9z"/>
<path d="M1095 3189 c-4 -6 -5 -12 -2 -15 2 -3 7 2 10 11 7 17 1 20 -8 4z"/>
<path d="M1006 3171 c-17 -6 -17 -8 -4 -14 10 -3 19 0 22 9 3 8 4 14 3 13 -1
0 -11 -4 -21 -8z"/>
<path d="M1039 3153 c-13 -16 -12 -17 4 -4 9 7 17 15 17 17 0 8 -8 3 -21 -13z"/>
<path d="M987 3139 c7 -9 10 -19 6 -23 -4 -4 1 -4 10 0 10 3 17 7 15 8 -2 1
-12 8 -23 16 -18 14 -19 13 -8 -1z"/>
<path d="M890 3086 c0 -2 7 -7 16 -10 8 -3 12 -2 9 4 -6 10 -25 14 -25 6z"/>
<path d="M835 3030 c-3 -6 1 -7 9 -4 18 7 21 14 7 14 -6 0 -13 -4 -16 -10z"/>
<path d="M775 3020 c-3 -6 1 -7 9 -4 18 7 21 14 7 14 -6 0 -13 -4 -16 -10z"/>
<path d="M710 2920 c0 -5 5 -10 10 -10 6 0 10 5 10 10 0 6 -4 10 -10 10 -5 0
-10 -4 -10 -10z"/>
<path d="M671 2888 c8 -15 13 -17 25 -7 8 6 14 14 14 16 0 3 -8 -1 -17 -8 -14
-12 -16 -12 -11 2 4 9 1 16 -7 16 -11 0 -11 -5 -4 -19z"/>
<path d="M635 2891 c-3 -6 5 -15 17 -21 21 -10 21 -10 6 3 -10 8 -15 17 -11
20 3 4 4 7 0 7 -3 0 -8 -4 -12 -9z"/>
<path d="M620 2860 c8 -5 20 -10 25 -10 6 0 3 5 -5 10 -8 5 -19 10 -25 10 -5
0 -3 -5 5 -10z"/>
<path d="M590 2830 c-8 -15 -8 -18 3 -14 8 3 14 11 14 19 0 20 -4 19 -17 -5z"/>
<path d="M586 2777 c3 -10 9 -15 12 -12 3 3 0 11 -7 18 -10 9 -11 8 -5 -6z"/>
<path d="M533 2755 c0 -7 7 -11 15 -7 10 3 13 1 8 -6 -4 -7 -2 -12 3 -12 17 0
13 18 -7 29 -14 7 -19 6 -19 -4z"/>
<path d="M505 2720 c-3 -6 1 -7 9 -4 18 7 21 14 7 14 -6 0 -13 -4 -16 -10z"/>
<path d="M500 2680 c-8 -5 -10 -10 -5 -10 6 0 17 5 25 10 8 5 11 10 5 10 -5 0
-17 -5 -25 -10z"/>
<path d="M1801 2840 c-13 -11 -19 -20 -13 -20 10 0 42 27 42 36 0 7 -4 5 -29
-16z"/>
<path d="M1611 2847 c2 -1 13 -9 24 -17 19 -14 19 -14 6 3 -7 9 -18 17 -24 17
-6 0 -8 -1 -6 -3z"/>
<path d="M1670 2840 c0 -6 4 -9 9 -6 5 4 12 1 14 -4 3 -6 4 -5 3 2 -3 15 -26
23 -26 8z"/>
<path d="M1716 2833 c-6 -14 -5 -15 5 -6 7 7 10 15 7 18 -3 3 -9 -2 -12 -12z"/>
<path d="M1600 2820 c-8 -5 -12 -12 -9 -15 4 -3 12 1 19 10 14 17 11 19 -10 5z"/>
<path d="M1955 2820 c3 -5 8 -10 11 -10 2 0 4 5 4 10 0 6 -5 10 -11 10 -5 0
-7 -4 -4 -10z"/>
<path d="M1987 2819 c7 -7 15 -10 18 -7 3 3 -2 9 -12 12 -14 6 -15 5 -6 -5z"/>
<path d="M1457 2796 c-4 -11 -1 -13 10 -9 12 5 14 3 8 -7 -5 -9 -4 -11 4 -6 9
6 9 11 0 22 -14 17 -16 17 -22 0z"/>
<path d="M1515 2800 c3 -5 8 -10 11 -10 2 0 4 5 4 10 0 6 -5 10 -11 10 -5 0
-7 -4 -4 -10z"/>
<path d="M2060 2806 c0 -2 8 -10 18 -17 15 -13 16 -12 3 4 -13 16 -21 21 -21
13z"/>
<path d="M1737 2784 c-1 -1 -29 -4 -62 -7 -83 -8 -122 -15 -180 -35 -27 -9
-56 -17 -64 -18 -7 -2 -18 -7 -24 -13 -6 -6 -17 -11 -24 -11 -7 0 -43 -18 -79
-40 -36 -22 -70 -40 -74 -40 -5 0 -10 -3 -12 -8 -1 -4 -26 -25 -54 -47 -97
-77 -207 -221 -258 -338 -31 -72 -39 -90 -42 -104 -1 -6 -7 -27 -13 -45 -19
-59 -38 -211 -35 -293 5 -179 53 -335 153 -498 46 -76 71 -107 156 -190 33
-33 59 -63 58 -67 -1 -5 7 -6 17 -3 18 5 25 -5 21 -29 0 -4 7 -4 16 -1 9 4 21
0 27 -9 6 -8 26 -21 44 -29 17 -7 32 -17 32 -21 0 -5 9 -8 19 -8 11 0 23 -5
26 -11 4 -6 13 -8 21 -5 8 3 17 -1 20 -9 3 -8 12 -11 21 -8 11 4 14 2 9 -5 -5
-8 -2 -10 8 -6 9 3 16 2 16 -4 0 -6 -6 -13 -12 -15 -10 -4 -10 -6 0 -6 7 -1
15 5 18 13 5 12 10 12 40 0 19 -8 34 -11 34 -7 0 4 7 -2 16 -13 8 -10 13 -13
9 -7 -4 9 2 12 19 11 15 -1 26 -6 26 -11 0 -5 -8 -6 -17 -2 -14 5 -15 4 -6 -6
10 -10 15 -9 28 1 12 10 15 10 15 -1 0 -10 2 -11 8 -2 7 12 77 12 89 0 3 -4
13 -1 21 6 13 9 14 9 8 0 -4 -7 -2 -13 3 -13 6 0 11 4 11 9 0 6 9 9 19 8 11 0
17 -6 13 -12 -3 -5 1 -4 10 3 14 11 17 10 21 -5 4 -15 5 -15 6 -2 1 23 65 30
88 9 15 -14 16 -14 4 3 -9 11 -10 17 -2 17 21 0 26 -5 24 -25 l-3 -20 9 20 c5
11 7 23 5 26 -6 11 25 19 31 9 4 -6 12 -10 18 -10 8 0 8 3 -1 9 -11 7 -11 9 2
14 9 4 16 2 16 -3 0 -5 9 -8 19 -7 11 0 17 5 15 9 -3 5 -10 6 -15 3 -5 -4 -9
-1 -9 6 0 6 8 9 20 6 11 -3 20 -2 20 3 0 4 7 11 16 14 10 4 13 2 8 -7 -4 -6 1
-5 12 4 10 9 26 19 34 23 8 3 30 15 48 26 17 11 32 16 32 11 0 -5 -6 -12 -12
-14 -10 -4 -10 -6 0 -6 8 -1 16 8 19 19 3 11 9 20 14 20 8 0 35 20 64 47 15
14 26 7 18 -13 -3 -8 -1 -14 5 -14 6 0 9 15 6 32 -2 18 -1 27 2 21 3 -7 10
-13 15 -13 6 0 8 4 5 9 -8 12 28 51 48 51 9 0 15 3 15 8 -3 18 2 32 12 32 5 0
7 -6 3 -12 -4 -7 1 -6 12 3 10 9 29 15 41 14 12 -1 24 4 27 11 4 10 -1 11 -19
4 -14 -5 -25 -7 -25 -4 0 4 -7 1 -15 -6 -9 -8 -15 -8 -15 -2 0 6 11 19 25 30
13 11 21 22 18 26 -3 3 0 6 7 6 7 0 11 3 7 6 -3 3 5 18 19 33 13 14 27 34 30
44 3 11 12 16 20 13 7 -3 16 -1 19 5 4 5 3 8 -2 7 -13 -5 -16 6 -8 30 5 18 12
23 31 19 13 -2 21 0 18 4 -3 5 -12 9 -20 9 -12 0 -13 4 -2 23 7 12 11 25 10
30 -1 4 3 7 9 7 5 0 7 5 4 10 -3 6 -2 10 2 10 5 0 9 8 10 18 3 37 10 55 29 70
16 12 16 14 2 9 -10 -4 -18 -2 -18 3 0 6 3 10 8 10 4 0 8 12 9 28 2 15 5 36 7
47 3 11 5 22 5 24 1 3 8 -4 17 -15 15 -17 15 -17 0 8 -15 26 -18 111 -3 101 4
-2 7 1 7 6 0 6 -3 11 -8 11 -10 0 -9 102 2 119 6 9 5 12 -1 8 -15 -9 -22 49
-9 64 8 9 7 10 -3 4 -11 -6 -13 -4 -8 8 3 10 3 17 -1 17 -4 0 -9 8 -10 18 -3
30 -7 47 -15 59 -4 6 -1 14 5 16 8 4 7 6 -4 6 -11 1 -16 8 -13 21 2 11 0 20
-6 20 -5 0 -9 6 -9 13 0 22 -90 191 -110 207 -3 3 -13 14 -21 26 -54 80 -181
198 -263 246 -27 16 -99 51 -161 78 -21 10 -116 37 -156 46 -40 8 -197 23
-202 18z m-18 -106 c11 -11 13 -10 7 0 -6 10 11 11 81 8 102 -6 122 -9 181
-27 37 -11 42 -16 37 -33 -15 -53 -16 -82 -3 -93 19 -15 71 -26 63 -13 -3 5
-1 10 5 10 6 0 8 5 5 10 -3 6 -1 10 5 10 7 0 10 7 6 15 -3 8 -1 15 4 15 5 0 7
7 4 15 -7 18 36 12 51 -7 6 -7 17 -14 25 -16 27 -6 80 -47 80 -62 0 -13 1 -13
10 0 9 13 10 13 11 0 1 -8 1 -18 0 -22 0 -4 6 -5 14 -2 8 4 15 1 15 -5 0 -6 7
-11 17 -11 9 0 14 -3 10 -6 -7 -7 17 -34 31 -34 5 0 15 -11 22 -25 12 -22 11
-26 -12 -45 -27 -20 -40 -52 -29 -66 11 -16 55 -49 47 -36 -4 7 -1 12 9 12 10
0 13 -5 9 -12 -4 -7 -3 -8 5 -4 6 4 9 11 6 15 -9 15 29 41 45 31 12 -8 11 -10
-5 -10 -17 0 -17 -2 5 -13 16 -8 39 -41 62 -87 20 -41 36 -76 36 -80 -1 -3 1
-12 5 -20 3 -8 12 -39 20 -68 l15 -52 -27 -6 c-53 -11 -71 -23 -71 -48 0 -39
38 -58 89 -45 7 2 16 -3 18 -11 4 -13 3 -13 -6 0 -6 8 -11 10 -11 5 0 -6 5
-16 12 -23 9 -9 9 -12 -1 -12 -7 0 -9 -5 -4 -12 4 -7 8 -24 9 -38 2 -35 -24
-189 -37 -222 -10 -26 -12 -26 -45 -12 -31 13 -35 13 -54 -6 -11 -11 -20 -24
-20 -28 0 -10 26 -37 54 -56 19 -13 19 -15 -8 -70 -31 -63 -131 -194 -167
-220 -22 -15 -25 -15 -47 14 -29 37 -69 41 -81 8 -9 -25 -4 -46 16 -66 18 -18
16 -35 -4 -48 -89 -55 -155 -84 -245 -109 -50 -14 -58 -9 -58 34 0 24 -30 49
-54 45 -27 -4 -37 -24 -31 -60 3 -19 1 -35 -7 -41 -30 -23 -288 2 -273 27 3 5
0 12 -6 16 -8 4 -9 3 -5 -4 5 -8 0 -12 -13 -12 -11 0 -23 5 -26 10 -3 6 -1 10
4 10 19 0 13 88 -6 98 -26 15 -58 -5 -72 -44 -7 -19 -16 -34 -21 -34 -39 0
-260 158 -260 185 0 8 -6 15 -14 15 -26 0 -25 29 2 52 34 28 38 63 10 82 -22
16 -46 9 -76 -21 -10 -10 -18 -11 -27 -3 -11 9 -58 100 -98 190 -6 14 -13 29
-16 34 -2 5 2 6 10 1 11 -6 11 -5 2 5 -6 7 -9 19 -6 28 4 9 2 13 -4 9 -6 -4
-13 4 -15 18 -6 27 3 31 32 15 16 -8 18 -7 14 4 -4 11 1 14 19 12 19 -2 24 1
19 12 -3 9 -1 13 4 9 6 -4 9 6 6 24 -5 36 -26 48 -74 43 -42 -5 -38 -12 -42
89 -2 39 2 52 18 63 11 8 15 14 8 14 -8 0 -10 5 -6 12 4 7 3 8 -4 4 -8 -5 -10
3 -7 26 5 32 10 65 14 98 4 37 15 40 69 20 35 -13 51 -16 49 -8 -1 7 3 12 10
13 6 0 15 4 20 9 5 5 2 6 -6 1 -11 -6 -13 -3 -8 14 6 22 -7 41 -49 69 -13 9
-14 11 -3 8 9 -2 16 2 16 10 0 12 -4 12 -23 -1 -14 -9 -25 -11 -29 -5 -3 6 -1
10 4 10 6 0 11 9 11 19 0 11 7 26 15 35 8 8 15 22 15 30 0 9 5 17 10 17 6 1
14 2 19 3 5 0 13 5 18 10 4 5 3 6 -4 2 -6 -3 -14 -2 -18 4 -3 5 -1 10 4 10 6
0 11 6 11 13 0 6 18 32 40 57 22 25 40 48 40 53 0 4 5 7 11 7 5 0 8 -4 5 -9
-3 -5 0 -14 8 -20 10 -9 15 -8 19 3 4 9 1 13 -6 10 -7 -2 -13 4 -14 16 -2 23
7 25 27 8 12 -11 12 -10 2 4 -10 12 -10 18 -1 23 13 9 31 -14 24 -32 -2 -7 2
-10 9 -7 7 3 20 -4 30 -15 14 -16 22 -17 46 -8 36 14 36 38 -2 96 -19 28 -24
42 -14 38 9 -4 15 -2 13 4 -1 6 17 21 41 34 23 14 42 22 42 20 0 -7 53 27 62
40 5 6 8 5 8 -2 0 -7 5 -13 11 -13 5 0 7 5 3 12 -5 8 0 9 14 6 14 -4 20 -2 15
5 -4 6 0 8 10 4 10 -3 17 -2 17 4 0 6 4 8 9 4 5 -3 12 -1 15 4 3 4 17 9 31 9
13 0 22 -4 19 -9 -3 -5 -1 -9 3 -9 5 0 10 -12 11 -27 1 -15 11 -36 22 -47 16
-16 23 -18 43 -9 26 12 40 56 24 72 -8 8 -7 11 3 11 11 0 11 3 2 12 -24 24 -8
39 17 16z m-799 -792 c0 -3 -4 -8 -10 -11 -5 -3 -10 -1 -10 4 0 6 5 11 10 11
6 0 10 -2 10 -4z"/>
<path d="M1877 2673 c-10 -9 -9 -23 1 -23 5 0 9 7 9 15 0 17 -1 18 -10 8z"/>
<path d="M1555 2640 c3 -5 8 -10 11 -10 2 0 4 5 4 10 0 6 -5 10 -11 10 -5 0
-7 -4 -4 -10z"/>
<path d="M1980 2640 c8 -5 20 -10 25 -10 6 0 3 5 -5 10 -8 5 -19 10 -25 10 -5
0 -3 -5 5 -10z"/>
<path d="M1576 2623 c-6 -14 -5 -15 5 -6 7 7 10 15 7 18 -3 3 -9 -2 -12 -12z"/>
<path d="M1426 2605 c-11 -8 -15 -15 -9 -15 6 0 16 7 23 15 16 19 11 19 -14 0z"/>
<path d="M1490 2606 c0 -8 4 -17 9 -20 5 -4 7 3 4 14 -6 23 -13 26 -13 6z"/>
<path d="M1456 2593 c-6 -14 -5 -15 5 -6 7 7 10 15 7 18 -3 3 -9 -2 -12 -12z"/>
<path d="M1708 2592 c-3 -11 0 -19 7 -19 7 0 10 8 7 19 -2 10 -6 18 -7 18 -1
0 -5 -8 -7 -18z"/>
<path d="M1333 2555 c0 -7 6 -11 14 -8 7 3 13 6 13 8 0 2 -6 5 -13 8 -8 3 -14
-1 -14 -8z"/>
<path d="M1370 2561 c0 -6 4 -13 10 -16 6 -3 7 1 4 9 -7 18 -14 21 -14 7z"/>
<path d="M1666 2543 c-6 -14 -5 -15 5 -6 7 7 10 15 7 18 -3 3 -9 -2 -12 -12z"/>
<path d="M1313 2527 c1 -15 5 -27 10 -27 10 0 9 22 -2 39 -7 10 -9 7 -8 -12z"/>
<path d="M1357 2529 c7 -7 15 -10 18 -7 3 3 -2 9 -12 12 -14 6 -15 5 -6 -5z"/>
<path d="M2125 2520 c-3 -5 -1 -10 4 -10 6 0 11 5 11 10 0 6 -2 10 -4 10 -3 0
-8 -4 -11 -10z"/>
<path d="M2050 2501 c0 -6 4 -13 10 -16 6 -3 7 1 4 9 -7 18 -14 21 -14 7z"/>
<path d="M2107 2489 c4 -13 8 -18 11 -10 2 7 -1 18 -6 23 -8 8 -9 4 -5 -13z"/>
<path d="M1821 2443 c-5 -10 -12 -43 -16 -73 -3 -30 -8 -62 -10 -70 -3 -8 -7
-35 -10 -60 -3 -25 -7 -56 -10 -70 -3 -14 -7 -45 -10 -70 -6 -46 -21 -149 -30
-207 l-6 -32 -77 5 c-223 13 -226 13 -244 -2 -28 -26 -9 -72 32 -75 8 0 33 -3
55 -5 39 -4 131 -10 187 -13 21 -1 26 -5 22 -18 -5 -17 -5 -17 6 0 12 19 36
24 24 5 -5 -7 -3 -8 7 -2 21 13 40 14 32 1 -3 -7 5 0 20 15 15 17 24 36 22 48
-2 12 5 29 18 41 19 17 19 19 3 13 -14 -5 -17 -3 -14 7 3 8 12 13 19 11 11 -3
12 -1 2 9 -16 16 -17 49 -3 49 7 0 7 6 0 19 -7 14 -7 22 0 26 6 4 8 11 4 16
-3 5 0 16 6 24 10 12 10 15 -1 15 -9 0 -10 3 -4 8 6 4 11 16 11 27 2 57 4 66
17 59 9 -5 9 -4 0 6 -10 11 -9 16 5 27 9 8 11 11 4 8 -18 -9 -11 67 9 91 8 10
9 15 3 11 -8 -5 -11 4 -9 26 2 17 3 34 4 36 1 2 11 -4 24 -15 l22 -19 -19 23
c-22 25 -29 52 -15 52 10 0 -11 52 -26 62 -18 13 -44 9 -54 -9z"/>
<path d="M1340 2371 c0 -7 -5 -9 -12 -5 -7 5 -8 3 -3 -5 5 -9 10 -10 18 -2 6
6 8 14 4 18 -4 3 -7 1 -7 -6z"/>
<path d="M1140 2360 c-9 -6 -10 -10 -3 -10 6 0 15 5 18 10 8 12 4 12 -15 0z"/>
<path d="M1290 2359 c0 -5 5 -7 10 -4 6 3 10 8 10 11 0 2 -4 4 -10 4 -5 0 -10
-5 -10 -11z"/>
<path d="M1910 2366 c0 -2 7 -7 16 -10 8 -3 12 -2 9 4 -6 10 -25 14 -25 6z"/>
<path d="M1106 2343 c-6 -14 -5 -15 5 -6 7 7 10 15 7 18 -3 3 -9 -2 -12 -12z"/>
<path d="M1073 2315 c0 -8 4 -12 9 -9 4 3 8 9 8 15 0 5 -4 9 -8 9 -5 0 -9 -7
-9 -15z"/>
<path d="M1896 2238 c3 -5 10 -6 15 -3 13 9 11 12 -6 12 -8 0 -12 -4 -9 -9z"/>
<path d="M1026 2202 c-3 -5 1 -9 9 -9 8 0 15 4 15 9 0 4 -4 8 -9 8 -6 0 -12
-4 -15 -8z"/>
<path d="M1890 2160 c0 -5 5 -10 11 -10 5 0 7 5 4 10 -3 6 -8 10 -11 10 -2 0
-4 -4 -4 -10z"/>
<path d="M1873 2070 c1 -21 10 -18 13 5 1 8 -2 15 -6 15 -5 0 -8 -9 -7 -20z"/>
<path d="M947 2047 c-3 -7 3 -13 14 -13 13 0 15 3 7 13 -6 7 -12 13 -13 13 -2
0 -5 -6 -8 -13z"/>
<path d="M995 2020 c3 -5 8 -10 11 -10 2 0 4 5 4 10 0 6 -5 10 -11 10 -5 0 -7
-4 -4 -10z"/>
<path d="M1072 2014 c10 -10 20 -16 22 -13 3 3 -5 11 -17 18 -21 13 -21 12 -5
-5z"/>
<path d="M1855 2020 c3 -5 8 -10 11 -10 2 0 4 5 4 10 0 6 -5 10 -11 10 -5 0
-7 -4 -4 -10z"/>
<path d="M941 1993 c0 -11 3 -13 6 -5 2 6 10 9 15 6 7 -4 8 -2 4 4 -11 18 -26
14 -25 -5z"/>
<path d="M1466 1763 c-6 -14 -5 -15 5 -6 7 7 10 15 7 18 -3 3 -9 -2 -12 -12z"/>
<path d="M925 1760 c3 -5 8 -10 11 -10 2 0 4 5 4 10 0 6 -5 10 -11 10 -5 0 -7
-4 -4 -10z"/>
<path d="M1571 1754 c0 -11 3 -14 6 -6 3 7 2 16 -1 19 -3 4 -6 -2 -5 -13z"/>
<path d="M1625 1759 c-4 -6 -5 -12 -2 -15 2 -3 7 2 10 11 7 17 1 20 -8 4z"/>
<path d="M1820 1755 c-11 -13 -10 -14 4 -9 9 3 16 10 16 15 0 13 -6 11 -20 -6z"/>
<path d="M1667 1739 c7 -7 15 -10 18 -7 3 3 -2 9 -12 12 -14 6 -15 5 -6 -5z"/>
<path d="M1790 1719 c0 -5 5 -7 10 -4 6 3 10 8 10 11 0 2 -4 4 -10 4 -5 0 -10
-5 -10 -11z"/>
<path d="M1925 1719 c-46 -13 -100 -63 -125 -116 -18 -38 -21 -59 -17 -105 6
-64 25 -104 80 -163 35 -38 42 -41 83 -39 24 2 44 -1 44 -6 0 -5 -9 -7 -20 -5
-12 2 -18 0 -15 -6 4 -5 11 -7 16 -4 5 4 9 0 9 -7 1 -7 7 -2 15 12 13 22 21
16 16 -12 0 -4 7 -4 16 -1 12 5 14 3 8 -8 -5 -8 -4 -11 0 -6 17 15 14 36 -3
30 -13 -5 -14 -3 -6 6 6 7 27 13 47 14 19 1 33 5 31 8 -6 10 34 42 44 35 5 -3
16 2 23 12 13 15 12 16 -3 3 -10 -7 -18 -9 -18 -3 0 15 26 33 35 24 5 -4 5 -1
1 6 -4 7 -1 23 6 35 24 36 23 129 -1 176 -55 107 -156 153 -266 120z m84 -91
c11 -10 13 -10 7 0 -21 37 59 -12 83 -51 51 -82 -3 -186 -97 -191 -55 -3 -88
17 -120 73 -13 22 -12 23 5 17 17 -6 17 -5 1 8 -18 13 -24 56 -10 70 4 4 7 13
7 19 1 7 6 11 13 10 7 -2 9 4 5 14 -4 11 -3 14 5 9 7 -4 12 -3 12 2 0 6 7 13
16 16 8 3 12 2 9 -4 -3 -6 1 -7 9 -4 9 3 13 10 10 15 -8 14 30 11 45 -3z m-99
-318 c0 -5 -2 -10 -4 -10 -3 0 -8 5 -11 10 -3 6 -1 10 4 10 6 0 11 -4 11 -10z"/>
<path d="M2033 1604 c0 -8 3 -12 5 -9 3 3 11 0 19 -7 11 -8 12 -7 7 5 -7 21
-31 29 -31 11z"/>
<path d="M1924 1554 c-18 -14 -18 -15 4 -4 12 6 22 13 22 15 0 8 -5 6 -26 -11z"/>
<path d="M1035 1640 c-3 -5 -1 -10 4 -10 6 0 11 5 11 10 0 6 -2 10 -4 10 -3 0
-8 -4 -11 -10z"/>
<path d="M999 1618 c-5 -18 -6 -38 -1 -34 7 8 12 36 6 36 -2 0 -4 -1 -5 -2z"/>
<path d="M2224 1450 c0 -13 4 -16 10 -10 7 7 7 13 0 20 -6 6 -10 3 -10 -10z"/>
<path d="M2207 1399 c7 -7 15 -10 18 -7 3 3 -2 9 -12 12 -14 6 -15 5 -6 -5z"/>
<path d="M2195 1371 c-3 -5 -2 -12 3 -15 5 -3 9 1 9 9 0 17 -3 19 -12 6z"/>
<path d="M2187 1329 c4 -13 8 -18 11 -10 2 7 -1 18 -6 23 -8 8 -9 4 -5 -13z"/>
<path d="M2125 1320 c-3 -6 1 -7 9 -4 18 7 21 14 7 14 -6 0 -13 -4 -16 -10z"/>
<path d="M2124 1274 c-18 -14 -18 -15 4 -4 12 6 22 13 22 15 0 8 -5 6 -26 -11z"/>
<path d="M1194 1266 c1 -8 5 -18 8 -22 4 -3 5 1 4 10 -1 8 -5 18 -8 22 -4 3
-5 -1 -4 -10z"/>
<path d="M1162 1241 c-11 -6 -9 -9 6 -13 15 -4 19 -2 15 8 -6 16 -4 16 -21 5z"/>
<path d="M1333 2757 c-4 -6 -1 -7 7 -2 10 6 12 4 7 -7 -6 -17 16 -19 30 -3 5
4 2 5 -6 0 -10 -6 -13 -4 -9 7 7 16 -19 21 -29 5z"/>
<path d="M1265 2740 c-3 -6 1 -7 9 -4 18 7 21 14 7 14 -6 0 -13 -4 -16 -10z"/>
<path d="M2220 2746 c0 -2 9 -6 20 -9 11 -3 18 -1 14 4 -5 9 -34 13 -34 5z"/>
<path d="M1215 2699 c-4 -6 -5 -12 -2 -15 2 -3 7 2 10 11 7 17 1 20 -8 4z"/>
<path d="M1275 2701 c-3 -5 -2 -12 3 -15 5 -3 9 1 9 9 0 17 -3 19 -12 6z"/>
<path d="M1235 2691 c-3 -5 0 -13 6 -17 7 -4 9 -3 5 4 -3 5 0 13 6 15 9 4 10
6 1 6 -6 1 -14 -3 -18 -8z"/>
<path d="M1181 2653 c-1 -6 -4 -20 -7 -30 -5 -17 -5 -17 6 0 6 10 9 23 6 30
-3 9 -5 9 -5 0z"/>
<path d="M1126 2637 c3 -10 9 -15 12 -12 3 3 0 11 -7 18 -10 9 -11 8 -5 -6z"/>
<path d="M1133 2595 c0 -8 4 -12 9 -9 5 3 6 10 3 15 -9 13 -12 11 -12 -6z"/>
<path d="M1075 2581 c-9 -15 15 -25 28 -12 9 9 7 10 -7 5 -13 -5 -17 -4 -12 4
4 7 5 12 2 12 -3 0 -7 -4 -11 -9z"/>
<path d="M1036 2551 c-3 -5 1 -11 9 -14 9 -4 12 -1 8 9 -6 16 -10 17 -17 5z"/>
<path d="M1002 2518 c-15 -15 -15 -28 -1 -28 5 0 8 4 4 9 -3 6 3 14 12 20 10
6 13 11 8 11 -6 0 -16 -5 -23 -12z"/>
<path d="M960 2471 c0 -6 4 -13 10 -16 6 -3 7 1 4 9 -7 18 -14 21 -14 7z"/>
<path d="M950 2440 c0 -5 5 -10 11 -10 5 0 7 5 4 10 -3 6 -8 10 -11 10 -2 0
-4 -4 -4 -10z"/>
<path d="M919 2418 c-5 -18 -6 -38 -1 -34 7 8 12 36 6 36 -2 0 -4 -1 -5 -2z"/>
<path d="M913 2358 c3 -9 1 -19 -6 -22 -9 -3 -9 -5 0 -5 18 -1 23 13 11 29 -8
12 -9 12 -5 -2z"/>
<path d="M878 2303 c7 -3 16 -2 19 1 4 3 -2 6 -13 5 -11 0 -14 -3 -6 -6z"/>
<path d="M845 2280 c-3 -6 1 -7 9 -4 18 7 21 14 7 14 -6 0 -13 -4 -16 -10z"/>
<path d="M833 2243 c-3 -10 -8 -22 -11 -27 -3 -5 0 -6 5 -3 11 7 25 47 17 47
-3 0 -7 -8 -11 -17z"/>
<path d="M797 2173 c-10 -9 -9 -23 1 -23 5 0 9 7 9 15 0 17 -1 18 -10 8z"/>
<path d="M751 2009 c-1 -9 7 -23 17 -30 15 -12 16 -12 6 1 -6 8 -14 22 -17 30
-5 13 -6 12 -6 -1z"/>
<path d="M2728 1883 c6 -2 9 -10 6 -15 -4 -7 -2 -8 5 -4 13 9 5 26 -12 25 -9
0 -8 -2 1 -6z"/>
<path d="M735 1840 c-3 -5 -1 -10 4 -10 6 0 11 5 11 10 0 6 -2 10 -4 10 -3 0
-8 -4 -11 -10z"/>
<path d="M2726 1842 c-3 -5 1 -9 9 -9 8 0 12 4 9 9 -3 4 -7 8 -9 8 -2 0 -6 -4
-9 -8z"/>
<path d="M2730 1720 c0 -5 5 -10 10 -10 6 0 10 5 10 10 0 6 -4 10 -10 10 -5 0
-10 -4 -10 -10z"/>
<path d="M2697 1525 c3 -8 9 -12 14 -9 12 7 11 11 -5 17 -10 4 -13 1 -9 -8z"/>
<path d="M2676 1501 c-3 -4 4 -17 17 -27 22 -19 22 -19 4 2 -9 11 -14 24 -10
27 3 4 4 7 0 7 -3 0 -8 -4 -11 -9z"/>
<path d="M2668 1408 c2 -10 6 -18 7 -18 1 0 5 8 7 18 3 11 0 19 -7 19 -7 0
-10 -8 -7 -19z"/>
<path d="M2600 1268 c-10 -21 -10 -21 3 -6 8 10 18 14 22 10 5 -4 5 -1 1 6
-10 17 -14 15 -26 -10z"/>
<path d="M2550 1240 c0 -5 5 -10 10 -10 6 0 10 5 10 10 0 6 -4 10 -10 10 -5 0
-10 -4 -10 -10z"/>
<path d="M2511 1124 c0 -11 3 -14 6 -6 3 7 2 16 -1 19 -3 4 -6 -2 -5 -13z"/>
<path d="M2470 1090 c0 -5 5 -10 11 -10 5 0 7 5 4 10 -3 6 -8 10 -11 10 -2 0
-4 -4 -4 -10z"/>
<path d="M2421 1074 c0 -11 3 -14 6 -6 3 7 2 16 -1 19 -3 4 -6 -2 -5 -13z"/>
<path d="M2404 1042 c4 -3 14 -7 22 -8 9 -1 13 0 10 4 -4 3 -14 7 -22 8 -9 1
-13 0 -10 -4z"/>
<path d="M2350 985 c-11 -13 -10 -14 4 -9 9 3 16 10 16 15 0 13 -6 11 -20 -6z"/>
<path d="M2310 949 c0 -5 5 -7 10 -4 6 3 10 8 10 11 0 2 -4 4 -10 4 -5 0 -10
-5 -10 -11z"/>
<path d="M2215 941 c6 -11 4 -13 -10 -7 -18 7 -18 6 0 -14 10 -11 19 -20 20
-20 6 0 -3 41 -10 47 -4 5 -4 2 0 -6z"/>
<path d="M2266 918 c3 -5 10 -6 15 -3 13 9 11 12 -6 12 -8 0 -12 -4 -9 -9z"/>
<path d="M2186 897 c3 -10 9 -15 12 -12 3 3 0 11 -7 18 -10 9 -11 8 -5 -6z"/>
<path d="M2105 880 c-3 -6 1 -7 9 -4 18 7 21 14 7 14 -6 0 -13 -4 -16 -10z"/>
<path d="M1535 840 c3 -5 8 -10 11 -10 2 0 4 5 4 10 0 6 -5 10 -11 10 -5 0 -7
-4 -4 -10z"/>
<path d="M1679 838 c-5 -18 -6 -38 -1 -34 7 8 12 36 6 36 -2 0 -4 -1 -5 -2z"/>
<path d="M1990 836 c0 -2 9 -6 20 -9 11 -3 18 -1 14 4 -5 9 -34 13 -34 5z"/>
<path d="M1724 815 c-4 -8 -11 -12 -17 -8 -6 3 -7 1 -3 -5 10 -16 14 -15 26 8
6 11 8 20 5 20 -3 0 -8 -7 -11 -15z"/>
<path d="M1799 828 c-7 -25 -5 -36 9 -34 9 2 18 9 20 17 3 11 1 11 -7 -1 -10
-13 -15 -8 -12 13 1 6 -8 11 -10 5z"/>
<path d="M1926 805 c-11 -8 -15 -15 -9 -15 6 0 16 7 23 15 16 19 11 19 -14 0z"/>
<path d="M530 2366 c0 -8 4 -17 9 -20 5 -4 7 3 4 14 -6 23 -13 26 -13 6z"/>
<path d="M2890 1598 c0 -4 4 -8 9 -8 6 0 12 4 15 8 3 5 -1 9 -9 9 -8 0 -15 -4
-15 -9z"/>
<path d="M2850 1446 c0 -8 4 -17 9 -20 5 -4 7 3 4 14 -6 23 -13 26 -13 6z"/>
<path d="M2755 1200 c-3 -5 -1 -10 4 -10 6 0 11 5 11 10 0 6 -2 10 -4 10 -3 0
-8 -4 -11 -10z"/>
<path d="M2710 1156 c0 -2 9 -6 20 -9 11 -3 18 -1 14 4 -5 9 -34 13 -34 5z"/>
<path d="M2713 1125 c0 -8 4 -12 9 -9 5 3 6 10 3 15 -9 13 -12 11 -12 -6z"/>
<path d="M2670 1085 c0 -8 4 -15 8 -15 5 0 9 7 9 15 0 8 -4 15 -9 15 -4 0 -8
-7 -8 -15z"/>
<path d="M2644 1045 c-10 -8 -14 -15 -8 -15 6 0 17 7 24 15 16 19 9 19 -16 0z"/>
<path d="M2596 1021 c-3 -4 2 -16 12 -24 16 -15 18 -15 18 2 0 12 -5 17 -15
13 -9 -3 -12 -1 -7 6 4 7 5 12 2 12 -3 0 -7 -4 -10 -9z"/>
<path d="M2590 976 c0 -2 7 -9 15 -16 9 -7 15 -8 15 -2 0 5 -7 12 -15 16 -8 3
-15 4 -15 2z"/>
<path d="M2550 956 c0 -2 9 -6 20 -9 11 -3 18 -1 14 4 -5 9 -34 13 -34 5z"/>
<path d="M2466 885 c-18 -13 -18 -14 2 -12 11 0 19 4 16 8 -2 4 2 10 8 12 7 3
9 6 3 6 -5 0 -18 -6 -29 -14z"/>
<path d="M2410 846 c0 -2 7 -7 16 -10 8 -3 12 -2 9 4 -6 10 -25 14 -25 6z"/>
<path d="M2410 810 c-9 -6 -10 -10 -3 -10 6 0 15 5 18 10 8 12 4 12 -15 0z"/>
<path d="M2346 798 c3 -4 9 -8 15 -8 5 0 9 4 9 8 0 5 -7 9 -15 9 -8 0 -12 -4
-9 -9z"/>
<path d="M2275 760 c-2 -3 5 -7 16 -7 10 -1 19 2 19 6 0 9 -29 10 -35 1z"/>
<path d="M2212 731 c-11 -7 -11 -9 0 -14 9 -3 15 1 15 9 0 8 -1 14 -1 14 -1 0
-7 -4 -14 -9z"/>
<path d="M2248 728 c-7 -17 15 -19 29 -3 4 4 3 5 -4 2 -6 -4 -13 -2 -15 5 -3
8 -6 6 -10 -4z"/>
<path d="M2150 681 c0 -6 4 -12 8 -15 5 -3 9 1 9 9 0 8 -4 15 -9 15 -4 0 -8
-4 -8 -9z"/>
<path d="M1759 648 c-7 -23 -4 -35 7 -35 9 0 11 4 4 12 -5 7 -7 15 -3 18 3 4
3 7 0 7 -4 0 -7 -1 -8 -2z"/>
<path d="M1860 620 c-9 -6 -10 -10 -3 -10 6 0 15 5 18 10 8 12 4 12 -15 0z"/>
<path d="M2715 2480 c3 -5 8 -10 11 -10 2 0 4 5 4 10 0 6 -5 10 -11 10 -5 0
-7 -4 -4 -10z"/>
<path d="M2856 2447 c3 -10 9 -15 12 -12 3 3 0 11 -7 18 -10 9 -11 8 -5 -6z"/>
<path d="M2833 2410 c1 -21 10 -18 13 5 1 8 -2 15 -6 15 -5 0 -8 -9 -7 -20z"/>
<path d="M2994 1965 c0 -13 3 -22 7 -19 8 4 6 30 -2 38 -3 3 -5 -5 -5 -19z"/>
<path d="M2960 1940 c-9 -6 -10 -10 -3 -10 6 0 15 5 18 10 8 12 4 12 -15 0z"/>
<path d="M3130 1216 c0 -2 8 -10 18 -17 15 -13 16 -12 3 4 -13 16 -21 21 -21
13z"/>
<path d="M3060 1166 c0 -2 7 -7 16 -10 8 -3 12 -2 9 4 -6 10 -25 14 -25 6z"/>
<path d="M3166 878 c3 -4 9 -8 15 -8 5 0 9 4 9 8 0 5 -7 9 -15 9 -8 0 -12 -4
-9 -9z"/>
<path d="M3120 845 c0 -2 6 -8 13 -14 10 -8 14 -7 14 2 0 8 -6 14 -14 14 -7 0
-13 -1 -13 -2z"/>
<path d="M3136 793 c-6 -14 -5 -15 5 -6 7 7 10 15 7 18 -3 3 -9 -2 -12 -12z"/>
<path d="M3020 691 c0 -6 -10 -8 -21 -6 -12 3 -18 1 -15 -3 4 -4 13 -7 19 -7
7 -1 11 -7 9 -15 -2 -8 0 -12 4 -7 9 9 16 47 9 47 -3 0 -5 -4 -5 -9z"/>
<path d="M2955 619 c-3 -4 2 -6 10 -5 21 3 28 13 10 13 -9 0 -18 -4 -20 -8z"/>
<path d="M2880 549 c13 -23 22 -25 13 -2 -5 12 -3 14 8 8 8 -5 11 -4 6 0 -4 5
-14 10 -22 11 -12 2 -12 -2 -5 -17z"/>
<path d="M2844 522 c4 -3 14 -7 22 -8 9 -1 13 0 10 4 -4 3 -14 7 -22 8 -9 1
-13 0 -10 -4z"/>
<path d="M2833 495 c0 -8 4 -12 9 -9 5 3 6 10 3 15 -9 13 -12 11 -12 -6z"/>
<path d="M1630 496 c0 -2 8 -10 18 -17 15 -13 16 -12 3 4 -13 16 -21 21 -21
13z"/>
<path d="M2810 486 c0 -8 4 -17 9 -20 5 -4 7 3 4 14 -6 23 -13 26 -13 6z"/>
<path d="M2780 475 c-11 -13 -10 -14 4 -9 9 3 16 10 16 15 0 13 -6 11 -20 -6z"/>
<path d="M2726 451 c-19 -7 -19 -8 0 -13 13 -3 21 0 21 8 0 8 -1 14 -1 13 -1
0 -10 -4 -20 -8z"/>
<path d="M2767 439 c7 -7 15 -10 18 -7 3 3 -2 9 -12 12 -14 6 -15 5 -6 -5z"/>
<path d="M2700 406 c0 -2 8 -10 18 -17 15 -13 16 -12 3 4 -13 16 -21 21 -21
13z"/>
<path d="M2668 367 c2 -10 5 -16 6 -15 1 2 7 10 13 18 10 13 8 16 -6 16 -13 0
-17 -6 -13 -19z"/>
<path d="M2066 363 c-6 -14 -5 -15 5 -6 7 7 10 15 7 18 -3 3 -9 -2 -12 -12z"/>
<path d="M2630 371 c0 -7 -5 -9 -12 -5 -7 5 -8 3 -3 -5 5 -9 10 -10 18 -2 6 6
8 14 4 18 -4 3 -7 1 -7 -6z"/>
<path d="M2030 341 c0 -6 4 -12 8 -15 5 -3 9 1 9 9 0 8 -4 15 -9 15 -4 0 -8
-4 -8 -9z"/>
<path d="M2576 315 c-9 -26 -7 -32 5 -12 6 10 9 21 6 23 -2 3 -7 -2 -11 -11z"/>
<path d="M2055 309 c-4 -6 -5 -12 -2 -15 2 -3 7 2 10 11 7 17 1 20 -8 4z"/>
<path d="M2497 276 c-4 -10 1 -12 14 -9 23 6 24 9 5 16 -8 3 -17 0 -19 -7z"/>
<path d="M2413 237 c0 -7 8 -13 18 -13 13 0 15 3 7 13 -6 7 -14 13 -18 13 -3
0 -7 -6 -7 -13z"/>
<path d="M2274 192 c3 -5 0 -13 -6 -15 -9 -4 -10 -6 -1 -6 17 -1 25 16 12 25
-7 4 -9 3 -5 -4z"/>
<path d="M2348 183 c7 -3 16 -2 19 1 4 3 -2 6 -13 5 -11 0 -14 -3 -6 -6z"/>
</g>
</svg>
